<svg xmlns="http://www.w3.org/2000/svg" viewBox="0 6 238 90"><g fill="#1d1d1d"><path d="M9.9 87.2v-5.9h.9v13.9h-.9V88H1.5v7.2H.6V81.3h.9v5.9h8.4zM30 88.3c0 3.9-3.3 7.1-7.2 7.1s-7.2-3.2-7.2-7.1 3.3-7.1 7.2-7.1c3.9-.1 7.2 3.1 7.2 7.1zm-13.5 0c0 3.4 2.9 6.3 6.3 6.3s6.3-2.9 6.3-6.3-2.9-6.3-6.3-6.3-6.3 2.8-6.3 6.3zM37 95.2h-.9V82.1h-3.6v-.8h8.1v.8H37v13.1zM45.7 82.1v5h5.6v.9h-5.6v6.4h5.7v.8h-6.6V81.3h6.6v.8h-5.7zM58.2 94.4h3.5v.8h-4.4V81.3h.9v13.1zM72.5 83.6c-.6-1-1.5-1.6-2.8-1.6-1.5 0-2.6 1.2-2.6 2.7s1.4 2.1 2.5 2.6l2.7 1.4c1.1.7 1.6 1.5 1.6 2.8 0 2.3-2.1 4-4.3 4-1.9 0-3.4-1.2-4.1-3l.8-.3c.6 1.5 1.7 2.5 3.4 2.5 1.8 0 3.4-1.4 3.4-3.3 0-1.6-1.6-2.2-2.8-2.8l-2.5-1.3c-.9-.6-1.4-1.4-1.4-2.5 0-2.1 1.5-3.5 3.6-3.5 1.4 0 2.7.8 3.4 2l-.9.3zM89 90.6l-1.9 4.6h-.9L92 80.8l5.8 14.4h-.9L95 90.6h-6zm3-7.5l-2.7 6.7h5.4L92 83.1zM114.6 95.7L103 83.3v11.9h-.9V81.1l11.7 12.3V81.3h.9l-.1 14.4zM120.3 81.3h2.5c2 0 3.6.3 5.2 1.7 1.5 1.4 2.2 3.2 2.2 5.2 0 1.9-.7 3.7-2.1 5.1-1.5 1.5-3.2 1.8-5.2 1.8h-2.5l-.1-13.8zm2.5 13.1c1.8 0 3.3-.4 4.7-1.7 1.2-1.2 1.8-2.8 1.8-4.4 0-1.8-.7-3.4-2-4.6s-2.8-1.5-4.5-1.5h-1.6v12.2h1.6zM150.2 95.2h-1l-4.5-6.6h-.4v6.6h-.9V81.3h1.7c1.1 0 2.2 0 3.2.7s1.4 1.8 1.4 3c0 2.4-1.7 3.7-4 3.6l4.5 6.6zm-4.9-7.4c.9 0 1.7 0 2.4-.6.7-.5 1-1.4 1-2.2 0-1-.5-2.1-1.5-2.5-.7-.3-1.7-.3-2.5-.3h-.6v5.7l1.2-.1zM155.9 82.1v5h5.6v.9h-5.6v6.4h5.7v.8H155V81.3h6.6v.8h-5.7zM173.4 83.6c-.6-1-1.5-1.6-2.8-1.6-1.5 0-2.6 1.2-2.6 2.7s1.4 2.1 2.5 2.6l2.7 1.4c1.1.7 1.6 1.5 1.6 2.8 0 2.3-2.1 4-4.3 4-1.9 0-3.4-1.2-4.1-3l.8-.3c.6 1.5 1.7 2.5 3.4 2.5 1.8 0 3.4-1.4 3.4-3.3 0-1.6-1.6-2.2-2.8-2.8l-2.5-1.3c-.9-.6-1.4-1.4-1.4-2.5 0-2.1 1.5-3.5 3.6-3.5 1.4 0 2.7.8 3.4 2l-.9.3zM193.3 88.3c0 3.9-3.3 7.1-7.2 7.1s-7.2-3.2-7.2-7.1 3.3-7.1 7.2-7.1c3.9-.1 7.2 3.1 7.2 7.1zm-13.5 0c0 3.4 2.9 6.3 6.3 6.3s6.3-2.9 6.3-6.3-2.9-6.3-6.3-6.3c-3.5 0-6.3 2.8-6.3 6.3zM205 95.2h-1l-4.5-6.6h-.5v6.6h-.9V81.3h1.7c1.1 0 2.2 0 3.2.7s1.4 1.8 1.4 3c0 2.4-1.7 3.7-4 3.6l4.6 6.6zm-4.9-7.4c.9 0 1.7 0 2.4-.6.7-.5 1-1.4 1-2.2 0-1-.5-2.1-1.5-2.5-.7-.3-1.7-.3-2.5-.3h-.5v5.7l1.1-.1zM212.9 95.2h-.9V82.1h-3.6v-.8h8.1v.8h-3.6v13.1zM227.2 83.6c-.6-1-1.5-1.6-2.8-1.6-1.5 0-2.6 1.2-2.6 2.7s1.4 2.1 2.5 2.6l2.7 1.4c1.1.7 1.6 1.5 1.6 2.8 0 2.3-2.1 4-4.3 4-1.9 0-3.4-1.2-4.1-3l.8-.3c.6 1.5 1.7 2.5 3.4 2.5 1.8 0 3.4-1.4 3.4-3.3 0-1.6-1.6-2.2-2.8-2.8l-2.5-1.3c-.9-.6-1.4-1.4-1.4-2.5 0-2.1 1.5-3.5 3.6-3.5 1.4 0 2.7.8 3.4 2l-.9.3z"/><g><path d="M5.6 63.4H0L26.1 6.3 52 63.4h-5.6L40 49.5H11.9L5.6 63.4zM26 18.6L14.2 44.4h23.5L26 18.6zM181 63.4h-5.6l26.1-57.1 25.9 57.1h-5.6l-6.4-13.9h-28.1L181 63.4zm20.4-44.8l-11.8 25.8h23.5l-11.7-25.8zM148.3 63.9c12 0 22.4-8.2 22.4-20.1v-36h-5.1v36c0 8.4-8.7 15-17.3 15h.1c-8.5 0-17.3-6.6-17.3-15v-36H126v36c0 11.9 10.3 20.1 22.3 20.1zM86.9 63.8c14.6-1 26-13 26-27.9C112.9 20.4 100.5 8 85 8c-15.6.1-27.9 12.5-27.9 28 0 10.1 5.2 18.9 13.2 23.8-3.9 1.2-6.4 3.3-6.4 3.3s4.8-2.8 20 7.5c18 12.3 27.3-4.3 27.3-4.3-6 5.7-13.3 7.3-24.3-2.5zM62.1 36c0-12.7 10.2-22.9 22.9-22.9s22.8 10.2 22.8 22.8c0 12.7-10.2 22.8-22.8 22.8-12.7.1-22.9-10-22.9-22.7z"/></g></g><path fill="#1d1d1d" d="M230.4 84.9c0-2.1 1.7-3.8 3.8-3.8s3.8 1.7 3.8 3.8c0 2.1-1.7 3.8-3.8 3.8-2.1 0-3.8-1.7-3.8-3.8zm.6 0c0 1.8 1.5 3.2 3.2 3.2s3.2-1.4 3.2-3.2c0-1.8-1.5-3.2-3.2-3.2-1.8 0-3.2 1.4-3.2 3.2zm4.9 2.1h-.7l-1.1-2h-.8v2h-.6v-4.3h1.8c.8 0 1.5.2 1.5 1.1 0 .8-.6 1.2-1.1 1.2l1 2zm-2.6-3.6v1.1h.7c.6 0 1.4.1 1.4-.5 0-.5-.5-.6-1-.6h-1.1z"/></svg>