<svg xmlns="http://www.w3.org/2000/svg" viewBox="0 3 238 95"><g fill="#1d1d1d"><path d="M102.9 41c-.3 0-.4-.1-.5-.1H85.1c-.4 0-.8.3-1.1.7C79 48 74 54.5 69 61c-.2.2-.3.4-.7.7v-1.2-41c0-.9-.3-1-1.1-1H53.8v36.1c-4.2-6.6-10-11.2-17.6-13.3-7.6-2-14.8-1-21.8 2.8V18.6H-.1v50.5c0 1.4.1 2.8.3 4.1 2 13.8 13.6 24.4 27.4 24.7 11.2.3 19.8-4.4 25.8-13.8.1-.2.2-.3.5-.6v13.4h14.5V72.6c.1 0 .1 0 .2-.1.2.2.3.4.5.6 5.3 7.7 10.6 15.5 15.8 23.2.3.4.5.7 1.1.6h16.3c.2 0 .4 0 .7-.1-6.9-9.8-13.7-19.7-20.6-29.5 6.9-8.8 13.7-17.5 20.5-26.3zM28.5 83.5c-7.6-.2-14.1-6.7-14-14.4 0-8 6.5-14.4 14.5-14.3 7.9 0 14.3 6.6 14.3 14.4-.2 8.5-7.3 14.5-14.8 14.3z"/><path d="M198.4 59c-1.5-8-5.9-13.5-13.5-16.4-3.8-1.4-7.8-1.8-11.8-1.8-7.8.1-15.7 0-23.5 0h-1.1v15.7c-2.8-5.2-6.6-9.3-11.6-12.3-5.1-3-10.6-4.2-16.4-3.8s-11.1 2.4-15.7 6c-13.2 10.3-15 29.4-3.9 41.8 5.7 6.4 12.9 9.8 21.5 9.7 11.9-.1 20.5-5.8 26.3-16.4v15.4h14.6v-1.1-31.3c0-.8 0-1.7.1-2.5.3-3.6 2.1-5.7 5.5-6.6 2.4-.6 4.8-.7 7.2-.4 3.5.4 6.2 2.1 7.7 5.4.8 1.8 1 3.7 1 5.6v31h14.3v-.8-31.6c-.2-1.9-.3-3.8-.7-5.6zm-76.1 24.5c-7.9 0-14.3-6.5-14.4-14.3 0-7.9 6.5-14.4 14.4-14.4s14.4 6.5 14.4 14.4-6.4 14.3-14.4 14.3zM213.8 18.8c-6.9 0-12.5 5.6-12.5 12.5s5.5 12.5 12.4 12.5c7.1 0 12.6-5.5 12.6-12.5-.1-6.9-5.6-12.5-12.5-12.5zM230.5 3.1c-4.2 0-7.6 3.3-7.6 7.5s3.3 7.6 7.6 7.6c4.2 0 7.5-3.3 7.5-7.5 0-4.3-3.3-7.6-7.5-7.6z"/></g></svg>