<?xml version="1.0" encoding="UTF-8" standalone="no"?>
<svg
   xmlns:dc="http://purl.org/dc/elements/1.1/"
   xmlns:cc="http://creativecommons.org/ns#"
   xmlns:rdf="http://www.w3.org/1999/02/22-rdf-syntax-ns#"
   xmlns:svg="http://www.w3.org/2000/svg"
   xmlns="http://www.w3.org/2000/svg"
   xmlns:sodipodi="http://sodipodi.sourceforge.net/DTD/sodipodi-0.dtd"
   xmlns:inkscape="http://www.inkscape.org/namespaces/inkscape"
   viewBox="0 -16 127.80886 127.80886"
   id="svg2"
   version="1.1"
   inkscape:version="0.48.0 r9654"
   width="100%"
   height="100%"
   sodipodi:docname="client6.svg">
  <metadata
     id="metadata18">
    <rdf:RDF>
      <cc:Work
         rdf:about="">
        <dc:format>image/svg+xml</dc:format>
        <dc:type
           rdf:resource="http://purl.org/dc/dcmitype/StillImage" />
      </cc:Work>
    </rdf:RDF>
  </metadata>
  <defs
     id="defs16" />
  <sodipodi:namedview
     pagecolor="#ffffff"
     bordercolor="#666666"
     borderopacity="1"
     objecttolerance="10"
     gridtolerance="10"
     guidetolerance="10"
     inkscape:pageopacity="0"
     inkscape:pageshadow="2"
     inkscape:window-width="1858"
     inkscape:window-height="1057"
     id="namedview14"
     showgrid="false"
     inkscape:zoom="1.4396498"
     inkscape:cx="277.18341"
     inkscape:cy="-29.737354"
     inkscape:window-x="54"
     inkscape:window-y="-8"
     inkscape:window-maximized="1"
     inkscape:current-layer="svg2"
     fit-margin-top="0"
     fit-margin-left="0"
     fit-margin-right="0"
     fit-margin-bottom="0" />
  <path
     transform="translate(-29.868374,-18.107304)"
     style="fill:#1a1a1a;stroke:none"
     d="m 157.67723,66.011734 c 0,35.293446 -28.61098,63.904426 -63.904426,63.904426 -35.293442,0 -63.90443,-28.61098 -63.90443,-63.904426 0,-35.293442 28.610988,-63.9044304 63.90443,-63.9044304 35.293446,0 63.904426,28.6109884 63.904426,63.9044304 z"
     id="path3007" />
  <g
     transform="matrix(1.622564,0,0,1.622564,-19.345026,-21.108463)"
     style="font-size:8px;font-style:normal;font-variant:normal;font-weight:bold;font-stretch:normal;text-align:start;line-height:125%;letter-spacing:0px;word-spacing:0px;writing-mode:lr-tb;text-anchor:start;fill:#ffffff;fill-opacity:1;stroke:none;font-family:Glacial Indifference;-inkscape-font-specification:Glacial Indifference Bold"
     id="flowRoot2995">
    <path
       d="m 23.506126,36.843635 c 0.81048,-0.009 1.577469,0.171011 2.300971,0.539993 0.723478,0.369007 1.29247,0.980998 1.706978,1.835976 l 3.959949,0 c -0.60051,-1.719465 -1.619496,-3.098446 -3.056961,-4.136947 -1.437495,-1.038471 -3.074472,-1.571463 -4.910937,-1.598979 -2.365976,0.06202 -4.341949,0.886005 -5.927923,2.471968 -1.585982,1.585992 -2.409971,3.561965 -2.471968,5.927924 0.062,2.365975 0.885986,4.341948 2.471968,5.927924 1.585974,1.58598 3.561947,2.409968 5.927923,2.471968 2.385958,-0.0605 4.36393,-0.881488 5.933924,-2.462969 1.569962,-1.581476 2.383951,-3.560448 2.441969,-5.936923 l 0,-0.551993 -8.039897,0 0,2.711965 4.151947,0 c -0.476508,1.205489 -1.137499,2.010478 -1.982975,2.414969 -0.845501,0.404497 -1.680489,0.591495 -2.504968,0.560993 -1.331991,-0.0395 -2.447976,-0.542489 -3.347957,-1.50898 -0.899994,-0.966483 -1.367987,-2.159466 -1.403981,-3.578955 0.03599,-1.419472 0.503987,-2.612455 1.403981,-3.578954 0.899981,-0.966475 2.015966,-1.469468 3.347957,-1.50898 z"
       style="font-size:24px;fill:#ffffff;font-family:Glacial Indifference;-inkscape-font-specification:Glacial Indifference Bold"
       id="path3013" />
    <path
       d="m 34.143106,50.043465 9.455879,0 0,-3.263958 -5.855925,0 0,-13.055832 -3.599954,0 z"
       style="font-size:24px;fill:#ffffff;font-family:Glacial Indifference;-inkscape-font-specification:Glacial Indifference Bold"
       id="path3015" />
    <path
       d="m 58.461694,41.85957 c -0.04251,1.30349 -0.527507,2.422475 -1.454981,3.356957 -0.9275,0.934492 -2.042484,1.423485 -3.344957,1.466981 -1.302491,-0.0435 -2.417476,-0.532489 -3.344957,-1.466981 -0.927493,-0.934483 -1.412487,-2.053467 -1.454981,-3.356957 0.0425,-1.302474 0.527488,-2.417458 1.454982,-3.344957 0.927481,-0.927476 2.042465,-1.412469 3.344956,-1.454981 1.302473,0.04251 2.417457,0.527506 3.344956,1.454982 0.927475,0.927499 1.412468,2.042483 1.454982,3.344956 z m 3.599954,0.024 c -0.06802,-2.32396 -0.904006,-4.287933 -2.507968,-5.891924 -1.603993,-1.603964 -3.567966,-2.439952 -5.891924,-2.507968 -2.323977,0.06802 -4.28795,0.904004 -5.891924,2.507968 -1.603982,1.603991 -2.43997,3.567964 -2.507968,5.891924 0.068,2.323976 0.903986,4.287948 2.507968,5.891924 1.603974,1.60398 3.567947,2.439968 5.891924,2.507968 2.323958,-0.068 4.287931,-0.903988 5.891924,-2.507968 1.603962,-1.603976 2.439951,-3.567948 2.507968,-5.891924 z"
       style="font-size:24px;fill:#ffffff;font-family:Glacial Indifference;-inkscape-font-specification:Glacial Indifference Bold"
       id="path3017" />
    <path
       d="m 72.202505,45.267526 c -0.01551,0.554498 -0.212506,1.017491 -0.590992,1.388982 -0.378504,0.371498 -0.845498,0.564496 -1.400982,0.578993 l -2.279971,0 0,-3.935949 2.279971,0 c 0.555484,0.01601 1.022478,0.212003 1.400981,0.587992 0.378486,0.376001 0.575484,0.835994 0.590993,1.379982 z M 71.07452,38.451614 c -0.01451,0.530504 -0.201506,0.975498 -0.560993,1.334983 -0.359503,0.359505 -0.804497,0.546502 -1.334983,0.560993 l -1.247984,0 0,-3.791951 1.247984,0 c 0.530486,0.01301 0.97548,0.197011 1.334982,0.551993 0.359488,0.355007 0.546485,0.803001 0.560994,1.343982 z m 4.799938,6.911911 c -0.02401,-1.10998 -0.348008,-2.015967 -0.971988,-2.717965 -0.624004,-0.701983 -1.403993,-1.163977 -2.33997,-1.385982 0.616482,-0.281988 1.093475,-0.719982 1.430982,-1.313983 0.337484,-0.593982 0.508481,-1.307972 0.512993,-2.141972 -0.01601,-1.146472 -0.428005,-2.105459 -1.235984,-2.876964 -0.807999,-0.771474 -1.915984,-1.172468 -3.323957,-1.202984 l -5.615928,0 0,16.31979 6.599915,0 c 1.57097,-0.0195 2.784954,-0.448494 3.641954,-1.286984 0.856976,-0.838487 1.29097,-1.969471 1.301983,-3.392956 z"
       style="font-size:24px;fill:#ffffff;font-family:Glacial Indifference;-inkscape-font-specification:Glacial Indifference Bold"
       id="path3019" />
    <path
       d="m 87.005235,46.779507 -5.855925,0 0,-3.287958 5.615928,0 0,-3.263958 -5.615928,0 0,-3.239958 5.855925,0 0,-3.263958 -9.455879,0 0,16.31979 9.455879,0 z"
       style="font-size:24px;fill:#ffffff;font-family:Glacial Indifference;-inkscape-font-specification:Glacial Indifference Bold"
       id="path3021" />
  </g>
  <g
     style="font-size:13.54903698px;font-style:normal;font-variant:normal;font-weight:normal;font-stretch:normal;text-align:start;line-height:125%;letter-spacing:0px;word-spacing:0px;writing-mode:lr-tb;text-anchor:start;fill:#ffffff;fill-opacity:1;stroke:none;font-family:Josefin Sans;-inkscape-font-specification:Josefin Sans"
     id="text3003">
    <path
       d="m 21.525901,81.202019 0,-9.685445 5.107351,0 0,1.051903 -3.956212,0 0,2.778611 3.956212,0 0,1.07175 -3.956212,0 0,4.783181 z"
       style="letter-spacing:11.87234783px;fill:#ffffff;font-family:Futura Bk BT;-inkscape-font-specification:Futura Bk BT"
       id="path3024" />
    <path
       d="m 40.238924,71.516574 1.164371,0 0,6.02694 c -3e-6,0.979132 0.208393,1.698042 0.625187,2.156732 0.416788,0.458692 1.070643,0.688037 1.961567,0.688037 0.890914,0 1.544769,-0.229345 1.961567,-0.688037 0.416785,-0.45869 0.62518,-1.1776 0.625188,-2.156732 l 0,-6.02694 1.170986,0 0,6.02694 c -9e-6,1.309919 -0.312051,2.29015 -0.936127,2.940697 -0.624092,0.650548 -1.564629,0.975821 -2.821614,0.975822 -1.252584,-10e-7 -2.190915,-0.325274 -2.814997,-0.975822 -0.624087,-0.650547 -0.936129,-1.630778 -0.936128,-2.940697 z"
       style="letter-spacing:11.87234783px;fill:#ffffff;font-family:Futura Bk BT;-inkscape-font-specification:Futura Bk BT"
       id="path3026" />
    <path
       d="m 61.915801,81.202019 0,-10.069158 7.085458,7.740417 0,-7.356704 1.098213,0 0,10.062542 -7.085458,-7.654412 0,7.277315 z"
       style="letter-spacing:11.87234783px;fill:#ffffff;font-family:Futura Bk BT;-inkscape-font-specification:Futura Bk BT"
       id="path3028" />
    <path
       d="m 85.458315,80.117037 0.734347,0 c 1.190829,10e-7 2.01559,-0.05182 2.474287,-0.15547 0.458685,-0.103645 0.840192,-0.281167 1.144523,-0.532567 0.396937,-0.330785 0.699056,-0.7575 0.906356,-1.280146 0.207286,-0.52264 0.310932,-1.121363 0.31094,-1.796173 -8e-6,-0.679211 -0.102552,-1.275729 -0.307632,-1.789558 -0.205095,-0.513815 -0.508316,-0.938325 -0.909664,-1.27353 -0.304331,-0.255801 -0.691351,-0.437733 -1.161063,-0.545799 -0.469722,-0.108048 -1.288971,-0.162077 -2.457747,-0.162085 l -0.734347,0 z m -1.164371,1.084982 0,-9.685445 1.859023,0 c 1.37607,10e-6 2.345275,0.06947 2.907618,0.208396 0.562332,0.13894 1.055204,0.371593 1.478618,0.697961 0.555715,0.427826 0.976916,0.974727 1.263607,1.640704 0.286673,0.665991 0.430014,1.433416 0.430023,2.302277 -9e-6,0.864461 -0.142247,1.628578 -0.426715,2.292354 -0.284485,0.663782 -0.70679,1.20958 -1.266915,1.637396 -0.423414,0.326377 -0.90526,0.559031 -1.445539,0.697961 -0.540291,0.138931 -1.381592,0.208396 -2.523905,0.208396 l -0.416792,0 z"
       style="letter-spacing:11.87234783px;fill:#ffffff;font-family:Futura Bk BT;-inkscape-font-specification:Futura Bk BT"
       id="path3030" />
    <path
       d="m 109.51024,75.823422 c 0.6307,0.269045 1.10593,0.626294 1.4257,1.07175 0.31975,0.445463 0.47963,0.972517 0.47964,1.581162 -1e-5,0.890921 -0.28338,1.608728 -0.85013,2.153423 -0.56675,0.544696 -1.31764,0.817044 -2.25266,0.817044 -0.76301,0 -1.40253,-0.195164 -1.91856,-0.585493 -0.51603,-0.390328 -0.86446,-0.944947 -1.04529,-1.663859 l 1.04529,-0.516027 c 0.14113,0.586597 0.37379,1.030954 0.69796,1.333071 0.32417,0.30212 0.73104,0.453179 1.2206,0.453179 0.57777,0 1.04529,-0.166496 1.40254,-0.499489 0.35725,-0.332991 0.53587,-0.766321 0.53588,-1.299993 -1e-5,-0.432225 -0.12461,-0.80822 -0.37379,-1.127984 -0.2492,-0.319757 -0.6252,-0.589899 -1.12799,-0.810428 l -1.1776,-0.502796 c -0.64393,-0.269035 -1.12357,-0.615259 -1.43892,-1.038672 -0.31535,-0.423401 -0.47303,-0.930607 -0.47303,-1.52162 0,-0.688029 0.25581,-1.256982 0.76743,-1.706861 0.51161,-0.449861 1.16437,-0.674796 1.95826,-0.674806 0.58218,1e-5 1.08608,0.123504 1.51169,0.370482 0.42561,0.246997 0.7575,0.610862 0.99567,1.091597 l -0.95266,0.608648 c -0.21612,-0.374884 -0.4587,-0.653847 -0.72774,-0.836891 -0.26904,-0.183027 -0.57336,-0.274544 -0.91297,-0.274553 -0.43223,9e-6 -0.78617,0.132323 -1.06182,0.396944 -0.27566,0.264638 -0.41349,0.602041 -0.41349,1.012209 0,0.344025 0.10585,0.641733 0.31756,0.893125 0.2117,0.251404 0.54028,0.474134 0.98574,0.668189 z"
       style="letter-spacing:11.87234783px;fill:#ffffff;font-family:Futura Bk BT;-inkscape-font-specification:Futura Bk BT"
       id="path3032" />
  </g>
  <path
     transform="translate(-70.155949,-13.771944)"
     style="fill:#ffffff;fill-opacity:1;fill-rule:evenodd;stroke:none"
     d="m 117.38966,30.586449 c 0,4.603492 -3.73187,8.33536 -8.33536,8.33536 -4.60349,0 -8.33536,-3.731868 -8.33536,-8.33536 0,-4.603493 3.73187,-8.335361 8.33536,-8.335361 4.60349,0 8.33536,3.731868 8.33536,8.335361 z"
     id="path3009" />
</svg>
