<?xml version="1.0" encoding="UTF-8" standalone="no"?>
<!-- Created with Inkscape (http://www.inkscape.org/) -->

<svg
   xmlns:dc="http://purl.org/dc/elements/1.1/"
   xmlns:cc="http://creativecommons.org/ns#"
   xmlns:rdf="http://www.w3.org/1999/02/22-rdf-syntax-ns#"
   xmlns:svg="http://www.w3.org/2000/svg"
   xmlns="http://www.w3.org/2000/svg"
   xmlns:sodipodi="http://sodipodi.sourceforge.net/DTD/sodipodi-0.dtd"
   xmlns:inkscape="http://www.inkscape.org/namespaces/inkscape"
   width="352.42151"
   height="141.33884"
   id="svg2"
   version="1.1"
   inkscape:version="0.48.0 r9654"
   sodipodi:docname="logo_1.svg">
  <defs
     id="defs4" />
  <sodipodi:namedview
     id="base"
     pagecolor="#ffffff"
     bordercolor="#666666"
     borderopacity="1.0"
     inkscape:pageopacity="0.0"
     inkscape:pageshadow="2"
     inkscape:zoom="1.5921112"
     inkscape:cx="172.44238"
     inkscape:cy="142.37606"
     inkscape:document-units="px"
     inkscape:current-layer="flowRoot2985"
     showgrid="false"
     fit-margin-top="0"
     fit-margin-left="0"
     fit-margin-right="0"
     fit-margin-bottom="0"
     inkscape:window-width="1366"
     inkscape:window-height="715"
     inkscape:window-x="1912"
     inkscape:window-y="252"
     inkscape:window-maximized="1" />
  <metadata
     id="metadata7">
    <rdf:RDF>
      <cc:Work
         rdf:about="">
        <dc:format>image/svg+xml</dc:format>
        <dc:type
           rdf:resource="http://purl.org/dc/dcmitype/StillImage" />
        <dc:title></dc:title>
      </cc:Work>
    </rdf:RDF>
  </metadata>
  <g
     inkscape:label="Calque 1"
     inkscape:groupmode="layer"
     id="layer1"
     transform="translate(-202.55762,-533.39941)">
    <g
       style="font-size:8px;font-style:normal;font-variant:normal;font-weight:normal;font-stretch:normal;text-align:start;line-height:125%;letter-spacing:0px;word-spacing:10px;writing-mode:lr-tb;text-anchor:start;fill:#000000;fill-opacity:1;stroke:none;font-family:Josefin Sans;-inkscape-font-specification:Josefin Sans"
       id="flowRoot2985">
      <path
         d="m 202.55762,589.70654 c -10e-6,-7.20111 1.36742,-13.99358 4.10229,-20.37744 2.73485,-6.38371 6.47826,-11.97574 11.23023,-16.77612 4.75192,-4.8002 10.32052,-8.59195 16.70581,-11.37525 6.38521,-2.7831 13.17695,-4.1747 20.37524,-4.1748 7.20111,10e-5 14.01775,1.3917 20.44995,4.1748 6.43205,2.7833 12.02408,6.57505 16.77613,11.37525 4.75185,4.80038 8.51942,10.39241 11.30273,16.77612 2.78309,6.38386 4.17469,13.17633 4.1748,20.37744 -1.1e-4,8.9268 -2.08824,17.11014 -6.2644,24.55005 -4.17637,7.43996 -9.72007,13.46413 -16.6311,18.07251 l 26.20898,-0.7207 0,9.36035 -45.07031,0 c -1.82527,0.38379 -3.62556,0.67163 -5.40088,0.86353 -1.77545,0.19189 -3.62408,0.28784 -5.5459,0.28784 -7.19829,0 -13.99003,-1.36817 -20.37524,-4.1045 -6.38529,-2.73632 -11.95389,-6.48045 -16.70581,-11.23242 -4.75197,-4.75193 -8.49538,-10.3198 -11.23023,-16.70361 -2.73487,-6.38375 -4.1023,-13.17476 -4.10229,-20.37305 z m 9.79101,0 c -1e-5,5.95024 1.12791,11.54155 3.38379,16.77393 2.25584,5.23245 5.30344,9.7925 9.14282,13.68017 3.83933,3.88772 8.35104,6.95949 13.53516,9.21534 5.18403,2.25587 10.70429,3.38379 16.56079,3.38379 5.85638,0 11.40081,-1.12792 16.6333,-3.38379 5.23234,-2.25585 9.7924,-5.32762 13.68018,-9.21534 3.8876,-3.88767 6.95937,-8.44772 9.21533,-13.68017 2.25576,-5.23238 3.38369,-10.82369 3.38379,-16.77393 -10e-5,-5.95306 -1.12803,-11.54583 -3.38379,-16.77832 -2.25596,-5.23235 -5.32773,-9.81657 -9.21533,-13.75268 -3.88778,-3.93595 -8.44784,-7.0319 -13.68018,-9.28784 -5.23249,-2.25577 -10.77692,-3.3837 -16.6333,-3.38379 -5.8565,9e-5 -11.37676,1.12802 -16.56079,3.38379 -5.18412,2.25594 -9.69583,5.35189 -13.53516,9.28784 -3.83938,3.93611 -6.88698,8.52033 -9.14282,13.75268 -2.25588,5.23249 -3.3838,10.82526 -3.38379,16.77832 z"
         style="font-size:144px"
         id="path2991" />
      <path
         d="m 330.28027,538.1543 9.93604,0 0,102.81445 -9.93604,0 z"
         style="font-size:144px"
         id="path2993" />
      <path
         d="m 436.03906,640.96875 c -1.91902,-4.41503 -4.17415,-9.83861 -6.76538,-16.27075 -2.59138,-6.43211 -5.2801,-13.24875 -8.06616,-20.44995 l -39.4541,0 c -2.78323,7.2012 -5.47121,14.01784 -8.06397,20.44995 -2.59279,6.43214 -4.84864,11.85572 -6.76758,16.27075 l -9.79101,0 c 1.43847,-3.45703 3.35742,-8.04125 5.75684,-13.75269 2.3994,-5.7114 4.99144,-11.97507 7.77612,-18.79101 2.78465,-6.81588 5.66526,-13.89619 8.64184,-21.24097 2.97654,-7.34466 5.85642,-14.42498 8.63965,-21.24096 2.78317,-6.81584 5.35104,-13.05534 7.70362,-18.71851 2.35249,-5.66299 4.29634,-10.27138 5.83154,-13.8252 1.44136,3.55382 3.36177,8.16221 5.76123,13.8252 2.39936,5.66317 4.9914,11.90267 7.77612,18.71851 2.78461,6.81598 5.68866,13.8963 8.71216,21.24096 3.02337,7.34478 5.92668,14.42509 8.70996,21.24097 2.78312,6.81594 5.35099,13.07961 7.70361,18.79101 2.35246,5.71144 4.2963,10.29566 5.83155,13.75269 z m -36,-82.3667 c -1.91899,4.5118 -4.19828,10.03132 -6.83789,16.55859 -2.63968,6.52741 -5.35111,13.39166 -8.13428,20.59278 l 32.83155,0 c -2.87995,-7.20112 -5.61627,-14.06537 -8.20899,-20.59278 -2.59282,-6.52727 -4.84868,-12.04679 -6.76758,-16.55859 -0.1934,-0.38371 -0.43364,-1.0319 -0.7207,-1.94458 -0.28715,-0.91251 -0.52739,-1.7526 -0.7207,-2.52026 -0.19048,0.76766 -0.42998,1.60775 -0.71851,2.52026 -0.28862,0.91268 -0.52958,1.56087 -0.7229,1.94458 z"
         style="font-size:144px"
         id="path2995" />
      <path
         d="m 550.30127,538.1543 0,107.56494 c -2.7833,-3.36035 -6.2147,-7.36816 -10.29419,-12.02344 -4.07968,-4.65526 -8.49544,-9.62327 -13.24731,-14.90405 -4.75203,-5.28074 -9.64827,-10.68088 -14.68873,-16.20044 -5.04058,-5.51949 -9.91265,-10.9189 -14.61621,-16.19824 -4.70365,-5.27924 -8.9993,-10.19891 -12.88696,-14.75904 -3.88773,-4.55998 -7.07962,-8.52018 -9.57568,-11.88061 -0.29007,-0.38371 -0.72293,-0.93596 -1.29859,-1.65674 -0.57571,-0.72062 -1.10378,-1.41642 -1.58423,-2.0874 l 0.43506,4.60547 0,80.354 -9.79541,0 0,-107.56934 c 2.78612,3.55382 6.19481,7.63414 10.22608,12.24097 4.03122,4.60703 8.42282,9.50253 13.1748,14.68652 4.75191,5.18416 9.62398,10.51253 14.61621,15.98511 4.99213,5.47272 9.81659,10.77691 14.47339,15.9126 4.65667,5.13579 9.00066,9.98368 13.03198,14.5437 4.03117,4.56009 7.34318,8.52029 9.93604,11.88062 0.19034,0.48049 0.57413,1.08034 1.15137,1.79956 0.57705,0.71925 1.1044,1.41579 1.58203,2.0896 l -0.43067,-4.75489 0,-79.6289 z"
         style="font-size:144px"
         id="path2997" />
    </g>
    <g
       transform="matrix(1.3790197,0,0,1.3790197,-6.8255271,-302.56066)"
       style="font-size:8px;font-style:normal;font-variant:normal;font-weight:normal;font-stretch:normal;text-align:start;line-height:125%;letter-spacing:0.10152139px;word-spacing:7.25152779px;writing-mode:lr-tb;text-anchor:start;fill:#000000;fill-opacity:1;stroke:none;font-family:Josefin Sans;-inkscape-font-specification:Josefin Sans"
       id="flowRoot2993">
      <path
         d="m 163.46509,693.75146 0,1.30005 -3.80005,0 0,12.97974 -1.38001,0 0,-12.97974 -3.75976,0 0,-1.30005 z"
         style="font-size:20px"
         id="path3000" />
      <path
         d="m 166.5085,708.03125 0,-14.27979 3.46009,0 c 0.60017,2e-5 1.18021,0.0833 1.74011,0.24994 0.55989,0.16664 1.05651,0.4233 1.48987,0.76996 0.43334,0.34669 0.78002,0.78004 1.04004,1.30005 0.26,0.52003 0.39,1.13995 0.39001,1.85974 -1e-5,0.79998 -0.17996,1.55997 -0.53985,2.27997 -0.35992,0.72002 -0.95328,1.2733 -1.7801,1.65985 0.12003,0.2002 0.28005,0.46693 0.48005,0.80017 0.19998,0.33326 0.42001,0.69662 0.66009,1.09009 0.24006,0.39348 0.4901,0.80353 0.75012,1.23016 0.26,0.42664 0.50994,0.83324 0.74982,1.21979 0.23986,0.38656 0.45979,0.73985 0.65979,1.05988 0.19998,0.32003 0.35999,0.57342 0.48004,0.76019 l -1.66015,0 c -0.10662,-0.15991 -0.2466,-0.37984 -0.41993,-0.65979 -0.17335,-0.27995 -0.36662,-0.59326 -0.57983,-0.93994 -0.21322,-0.34668 -0.43987,-0.7134 -0.67993,-1.10016 -0.24008,-0.38676 -0.47344,-0.7668 -0.70007,-1.14014 -0.22666,-0.37332 -0.44333,-0.72662 -0.65003,-1.05987 -0.20671,-0.33325 -0.38331,-0.61991 -0.52978,-0.85999 -0.13347,0.0265 -0.27355,0.0397 -0.42023,0.0397 -0.1467,0 -0.29328,0 -0.43976,0 l -2.13989,0 0,5.72021 z m 1.36048,-7.02026 2.11975,0 c 0.64005,0 1.17339,-0.1066 1.60004,-0.31983 0.42662,-0.21321 0.76323,-0.47647 1.00982,-0.78979 0.24658,-0.31331 0.41992,-0.64666 0.52002,-1.00006 0.10009,-0.35339 0.15014,-0.67677 0.15015,-0.97016 -10e-6,-0.36009 -0.07,-0.71349 -0.20996,-1.06018 -0.13999,-0.34667 -0.34333,-0.65662 -0.61005,-0.92987 -0.26673,-0.27322 -0.6068,-0.49315 -1.0202,-0.65979 -0.41342,-0.16661 -0.88665,-0.24992 -1.41968,-0.24994 l -2.13989,0 z"
         style="font-size:20px"
         id="path3002" />
      <path
         d="m 187.90031,708.03125 c -0.26653,-0.6132 -0.57974,-1.36647 -0.93964,-2.25983 -0.35991,-0.89334 -0.73334,-1.8401 -1.1203,-2.84027 l -5.47973,0 c -0.38656,1.00017 -0.75989,1.94693 -1.12,2.84027 -0.36011,0.89336 -0.67342,1.64663 -0.93994,2.25983 l -1.35986,0 c 0.19978,-0.48014 0.4663,-1.11684 0.79956,-1.9101 0.33325,-0.79325 0.69325,-1.6632 1.08001,-2.60986 0.38676,-0.94665 0.78685,-1.93003 1.20026,-2.95013 0.41341,-1.0201 0.81339,-2.00347 1.19995,-2.95014 0.38655,-0.94664 0.7432,-1.81324 1.06995,-2.59979 0.32673,-0.78653 0.59671,-1.42658 0.80993,-1.92017 0.20019,0.49359 0.46692,1.13364 0.80017,1.92017 0.33325,0.78655 0.69325,1.65315 1.08002,2.59979 0.38675,0.94667 0.79009,1.93004 1.21002,2.95014 0.41992,1.0201 0.82315,2.00348 1.20972,2.95013 0.38655,0.94666 0.74319,1.81661 1.06995,2.60986 0.32673,0.79326 0.5967,1.42996 0.80993,1.9101 z m -5,-11.43982 c -0.26653,0.62664 -0.5831,1.39324 -0.94971,2.29981 -0.36662,0.90658 -0.74321,1.85995 -1.12976,2.8601 l 4.55994,0 c -0.39999,-1.00015 -0.78004,-1.95352 -1.14014,-2.8601 -0.36011,-0.90657 -0.67343,-1.67317 -0.93994,-2.29981 -0.0269,-0.0533 -0.0602,-0.14332 -0.1001,-0.27008 -0.0399,-0.12674 -0.0733,-0.24342 -0.1001,-0.35004 -0.0265,0.10662 -0.0597,0.2233 -0.0998,0.35004 -0.0401,0.12676 -0.0736,0.21679 -0.1004,0.27008 z"
         style="font-size:20px"
         id="path3004" />
      <path
         d="m 191.73169,693.75146 3.32031,0 c 1.44002,2e-5 2.66001,0.21995 3.65998,0.65979 0.99994,0.43988 1.81324,1.00649 2.43988,1.69983 0.62661,0.69337 1.0799,1.47005 1.35986,2.33002 0.27993,0.86 0.41991,1.71011 0.41992,2.55036 -10e-6,1.07992 -0.19329,2.05322 -0.57983,2.91992 -0.38657,0.8667 -0.90659,1.60665 -1.56006,2.21985 -0.6535,0.6132 -1.41348,1.08317 -2.27997,1.40991 -0.8665,0.32674 -1.78661,0.49011 -2.76032,0.49011 l -4.01977,0 z m 3.88,12.97974 c 0.82682,0 1.60349,-0.13336 2.33002,-0.40008 0.72651,-0.26673 1.35986,-0.65003 1.90003,-1.14991 0.54015,-0.49987 0.96353,-1.10982 1.27014,-1.82983 0.30659,-0.72001 0.45989,-1.5333 0.4599,-2.43988 -1e-5,-0.82682 -0.14335,-1.59688 -0.43,-2.31018 -0.28667,-0.71329 -0.69672,-1.32995 -1.23016,-1.84998 -0.53346,-0.52 -1.17351,-0.93006 -1.92016,-1.23016 -0.74668,-0.30008 -1.58652,-0.45012 -2.51954,-0.45014 l -2.36023,0 0,11.66016 z"
         style="font-size:20px"
         id="path3006" />
      <path
         d="m 206.10994,693.75146 1.38001,0 0,14.27979 -1.38001,0 z"
         style="font-size:20px"
         id="path3008" />
      <path
         d="m 219.48051,693.75146 0,1.30005 -3.80005,0 0,12.97974 -1.38001,0 0,-12.97974 -3.75976,0 0,-1.30005 z"
         style="font-size:20px"
         id="path3010" />
      <path
         d="m 222.52393,693.75146 1.38,0 0,14.27979 -1.38,0 z"
         style="font-size:20px"
         id="path3012" />
      <path
         d="m 227.03462,700.9115 c 0,-1.00016 0.18992,-1.94355 0.56977,-2.8302 0.37984,-0.88663 0.89975,-1.6633 1.55975,-2.33002 0.65999,-0.66669 1.4334,-1.19332 2.32025,-1.57989 0.88683,-0.38655 1.83013,-0.57982 2.8299,-0.57984 1.00015,2e-5 1.9469,0.19329 2.84027,0.57984 0.89334,0.38657 1.67001,0.9132 2.33001,1.57989 0.65998,0.66672 1.18326,1.44339 1.56983,2.33002 0.38654,0.88665 0.57982,1.83004 0.57983,2.8302 -1e-5,0.99976 -0.19329,1.94296 -0.57983,2.82959 -0.38657,0.88664 -0.90985,1.65995 -1.56983,2.31995 -0.66,0.65999 -1.43667,1.18001 -2.33001,1.56005 -0.89337,0.38005 -1.84012,0.57007 -2.84027,0.57007 -0.99977,0 -1.94307,-0.19002 -2.8299,-0.57007 -0.88685,-0.38004 -1.66026,-0.90006 -2.32025,-1.56005 -0.66,-0.66 -1.17991,-1.43331 -1.55975,-2.31995 -0.37985,-0.88663 -0.56977,-1.82983 -0.56977,-2.82959 z m 1.35987,0 c -1e-5,0.82642 0.15665,1.60299 0.46997,2.32971 0.31331,0.72673 0.73659,1.36007 1.26983,1.90003 0.53324,0.53996 1.15987,0.96659 1.87989,1.2799 0.72,0.31332 1.4867,0.46997 2.30011,0.46997 0.81338,0 1.58344,-0.15665 2.31018,-0.46997 0.72671,-0.31331 1.36005,-0.73994 1.90002,-1.2799 0.53995,-0.53996 0.96658,-1.1733 1.27991,-1.90003 0.3133,-0.72672 0.46995,-1.50329 0.46997,-2.32971 -2e-5,-0.82682 -0.15667,-1.60359 -0.46997,-2.33032 -0.31333,-0.72672 -0.73996,-1.36342 -1.27991,-1.9101 -0.53997,-0.54666 -1.17331,-0.97665 -1.90002,-1.28998 -0.72674,-0.3133 -1.4968,-0.46995 -2.31018,-0.46997 -0.82643,2e-5 -1.59639,0.15667 -2.30988,0.46997 -0.71351,0.31333 -1.34024,0.74332 -1.88019,1.28998 -0.53996,0.54668 -0.96324,1.18338 -1.26983,1.9101 -0.30661,0.72673 -0.45991,1.5035 -0.4599,2.33032 z"
         style="font-size:20px"
         id="path3014" />
      <path
         d="m 256.91825,693.75146 0,14.93958 c -0.38657,-0.46672 -0.86315,-1.02336 -1.42975,-1.66992 -0.56662,-0.64657 -1.17992,-1.33657 -1.8399,-2.07001 -0.66001,-0.73343 -1.34004,-1.48345 -2.0401,-2.25006 -0.70008,-0.7666 -1.37676,-1.51651 -2.03003,-2.24976 -0.65329,-0.73322 -1.24991,-1.41651 -1.78986,-2.04986 -0.53996,-0.63333 -0.98328,-1.18336 -1.32995,-1.65009 -0.0403,-0.0533 -0.10041,-0.12999 -0.18036,-0.2301 -0.08,-0.10009 -0.15331,-0.19672 -0.22003,-0.28992 l 0.0604,0.63965 0,11.16028 -1.36047,0 0,-14.94019 c 0.38696,0.49359 0.86039,1.0603 1.42028,1.70014 0.5599,0.63986 1.16984,1.31979 1.82984,2.03979 0.65999,0.72003 1.33666,1.46008 2.03003,2.22016 0.69335,0.7601 1.36341,1.49679 2.01019,2.21008 0.64676,0.7133 1.25009,1.38662 1.81,2.01996 0.55988,0.63334 1.01988,1.18337 1.38,1.65008 0.0264,0.0667 0.0797,0.15005 0.15992,0.24994 0.0801,0.0999 0.15338,0.19664 0.21972,0.29023 l -0.0598,-0.6604 0,-11.05958 z"
         style="font-size:20px"
         id="path3016" />
      <path
         d="m 268.60974,694.49121 -0.49988,1.09985 c -0.46672,-0.18634 -0.98338,-0.34626 -1.54998,-0.47973 -0.56662,-0.13345 -1.11665,-0.20018 -1.65009,-0.2002 -0.47974,2e-5 -0.90963,0.06 -1.28967,0.18006 -0.38005,0.12005 -0.70344,0.28677 -0.97016,0.50018 -0.26672,0.21343 -0.47007,0.45676 -0.61004,0.72998 -0.13998,0.27325 -0.20997,0.56998 -0.20996,0.8902 -1e-5,0.38656 0.1067,0.71646 0.32013,0.98968 0.21341,0.27325 0.49336,0.50986 0.83984,0.70984 0.34647,0.2 0.73974,0.38341 1.17981,0.55023 0.44006,0.16684 0.89009,0.33682 1.3501,0.50995 0.45999,0.17315 0.91002,0.36978 1.35009,0.58991 0.44006,0.22014 0.83343,0.49022 1.18012,0.81024 0.34667,0.32003 0.62662,0.69998 0.83984,1.13983 0.21321,0.43987 0.31982,0.97311 0.31983,1.59973 -1e-5,0.62704 -0.11334,1.1905 -0.33997,1.69037 -0.22665,0.49988 -0.55329,0.92652 -0.97992,1.27991 -0.42664,0.35339 -0.94992,0.62673 -1.56982,0.82001 -0.61992,0.19327 -1.32335,0.28991 -2.11029,0.28991 -0.5599,0 -1.07646,-0.0499 -1.54969,-0.14984 -0.47322,-0.0999 -0.89325,-0.21993 -1.26007,-0.36011 -0.36682,-0.14017 -0.68685,-0.2835 -0.96008,-0.42999 -0.27323,-0.14648 -0.48981,-0.27323 -0.64972,-0.38025 l 0.61951,-1.19995 c 0.24007,0.14689 0.51015,0.29368 0.81024,0.44037 0.30009,0.14669 0.6134,0.27334 0.93994,0.37994 0.32654,0.10661 0.66314,0.19328 1.00983,0.26001 0.34667,0.0667 0.68684,0.1001 1.02051,0.1001 0.35969,0 0.75622,-0.0501 1.18957,-0.15015 0.43334,-0.10009 0.83343,-0.26346 1.20026,-0.49011 0.36681,-0.22664 0.67351,-0.51666 0.9201,-0.87005 0.24658,-0.3534 0.36987,-0.78339 0.36988,-1.28998 -1e-5,-0.62663 -0.18332,-1.13322 -0.54993,-1.51978 -0.36663,-0.38655 -0.82327,-0.71654 -1.36994,-0.98999 -0.54667,-0.27343 -1.14004,-0.51686 -1.78009,-0.73028 -0.64006,-0.21342 -1.23342,-0.46346 -1.78009,-0.75013 -0.54667,-0.28665 -1.00331,-0.6433 -1.36993,-1.06994 -0.36662,-0.42663 -0.54993,-0.97991 -0.54993,-1.65985 0,-0.48014 0.0966,-0.94349 0.28992,-1.39008 0.19328,-0.44656 0.47658,-0.83647 0.84991,-1.16974 0.37333,-0.33324 0.82662,-0.59986 1.35987,-0.79986 0.53324,-0.19998 1.13331,-0.29998 1.80023,-0.29999 0.37312,10e-6 0.75642,0.0299 1.1499,0.0897 0.39347,0.0598 0.76354,0.13307 1.11023,0.21973 0.34667,0.0867 0.65999,0.17671 0.93994,0.27008 0.27994,0.0934 0.49316,0.17345 0.63965,0.24017 z"
         style="font-size:20px"
         id="path3018" />
      <path
         d="m 293.72177,708.03125 c -0.26653,-0.6132 -0.57974,-1.36647 -0.93963,-2.25983 -0.35992,-0.89334 -0.73335,-1.8401 -1.12031,-2.84027 l -5.47973,0 c -0.38656,1.00017 -0.75989,1.94693 -1.12,2.84027 -0.36011,0.89336 -0.67342,1.64663 -0.93994,2.25983 l -1.35986,0 c 0.19979,-0.48014 0.46631,-1.11684 0.79956,-1.9101 0.33325,-0.79325 0.69325,-1.6632 1.08002,-2.60986 0.38675,-0.94665 0.78684,-1.93003 1.20025,-2.95013 0.41341,-1.0201 0.81339,-2.00347 1.19995,-2.95014 0.38655,-0.94664 0.7432,-1.81324 1.06995,-2.59979 0.32674,-0.78653 0.59671,-1.42658 0.80994,-1.92017 0.20019,0.49359 0.46691,1.13364 0.80017,1.92017 0.33324,0.78655 0.69325,1.65315 1.08001,2.59979 0.38676,0.94667 0.7901,1.93004 1.21003,2.95014 0.41991,1.0201 0.82315,2.00348 1.20971,2.95013 0.38655,0.94666 0.7432,1.81661 1.06995,2.60986 0.32673,0.79326 0.59671,1.42996 0.80994,1.9101 z m -5,-11.43982 c -0.26652,0.62664 -0.58309,1.39324 -0.94971,2.29981 -0.36662,0.90658 -0.74321,1.85995 -1.12976,2.8601 l 4.55994,0 c -0.39999,-1.00015 -0.78004,-1.95352 -1.14014,-2.8601 -0.36011,-0.90657 -0.67342,-1.67317 -0.93994,-2.29981 -0.0269,-0.0533 -0.0602,-0.14332 -0.1001,-0.27008 -0.0399,-0.12674 -0.0732,-0.24342 -0.10009,-0.35004 -0.0265,0.10662 -0.0597,0.2233 -0.0998,0.35004 -0.0401,0.12676 -0.0736,0.21679 -0.1004,0.27008 z"
         style="font-size:20px"
         id="path3020" />
      <path
         d="m 309.69305,693.75146 0,14.93958 c -0.38657,-0.46672 -0.86315,-1.02336 -1.42974,-1.66992 -0.56663,-0.64657 -1.17993,-1.33657 -1.83991,-2.07001 -0.66,-0.73343 -1.34004,-1.48345 -2.0401,-2.25006 -0.70008,-0.7666 -1.37676,-1.51651 -2.03003,-2.24976 -0.65328,-0.73322 -1.2499,-1.41651 -1.78985,-2.04986 -0.53997,-0.63333 -0.98328,-1.18336 -1.32996,-1.65009 -0.0403,-0.0533 -0.10041,-0.12999 -0.18036,-0.2301 -0.08,-0.10009 -0.1533,-0.19672 -0.22003,-0.28992 l 0.0604,0.63965 0,11.16028 -1.36047,0 0,-14.94019 c 0.38696,0.49359 0.86039,1.0603 1.42029,1.70014 0.55989,0.63986 1.16983,1.31979 1.82983,2.03979 0.65999,0.72003 1.33667,1.46008 2.03003,2.22016 0.69335,0.7601 1.36342,1.49679 2.01019,2.21008 0.64676,0.7133 1.2501,1.38662 1.81,2.01996 0.55989,0.63334 1.01989,1.18337 1.38001,1.65008 0.0264,0.0667 0.0797,0.15005 0.15991,0.24994 0.0802,0.0999 0.15339,0.19664 0.21973,0.29023 l -0.0598,-0.6604 0,-11.05958 z"
         style="font-size:20px"
         id="path3022" />
      <path
         d="m 313.90468,693.75146 3.32031,0 c 1.44002,2e-5 2.66001,0.21995 3.65997,0.65979 0.99995,0.43988 1.81325,1.00649 2.43988,1.69983 0.62662,0.69337 1.07991,1.47005 1.35987,2.33002 0.27993,0.86 0.41991,1.71011 0.41992,2.55036 -10e-6,1.07992 -0.19329,2.05322 -0.57983,2.91992 -0.38657,0.8667 -0.90659,1.60665 -1.56006,2.21985 -0.6535,0.6132 -1.41349,1.08317 -2.27997,1.40991 -0.86651,0.32674 -1.78661,0.49011 -2.76032,0.49011 l -4.01977,0 z m 3.88,12.97974 c 0.82682,0 1.60349,-0.13336 2.33002,-0.40008 0.72651,-0.26673 1.35985,-0.65003 1.90002,-1.14991 0.54016,-0.49987 0.96354,-1.10982 1.27015,-1.82983 0.30658,-0.72001 0.45988,-1.5333 0.4599,-2.43988 -2e-5,-0.82682 -0.14335,-1.59688 -0.43,-2.31018 -0.28667,-0.71329 -0.69672,-1.32995 -1.23016,-1.84998 -0.53346,-0.52 -1.17351,-0.93006 -1.92017,-1.23016 -0.74667,-0.30008 -1.58651,-0.45012 -2.51953,-0.45014 l -2.36023,0 0,11.66016 z"
         style="font-size:20px"
         id="path3024" />
      <path
         d="m 340.55786,693.11121 c 0.2535,0.37355 0.56691,0.83029 0.94025,1.37024 0.37333,0.53997 0.78002,1.12326 1.22009,1.74987 0.44006,0.62664 0.89335,1.26659 1.35986,1.91986 0.46651,0.65329 0.91644,1.28328 1.3498,1.88996 0.43334,0.60669 0.83007,1.16333 1.19018,1.66992 0.3601,0.5066 0.65348,0.92001 0.88013,1.24023 0.12003,-0.17333 0.3367,-0.48664 0.65002,-0.93994 0.31331,-0.45328 0.67992,-0.97991 1.09986,-1.57989 0.41991,-0.59997 0.87655,-1.24999 1.36993,-1.95008 0.49336,-0.70006 0.97675,-1.38681 1.4502,-2.06024 0.47341,-0.67341 0.92009,-1.30003 1.34002,-1.87988 0.41991,-0.57982 0.76313,-1.0565 1.02967,-1.43005 l 0,14.92004 -1.43982,0 0,-10.18005 c -2e-5,-0.12003 0.007,-0.24668 0.0201,-0.37995 0.0134,-0.13325 0.0201,-0.24667 0.0201,-0.34027 -0.22666,0.32024 -0.49674,0.70365 -0.81024,1.15021 -0.31353,0.44658 -0.64363,0.92327 -0.9903,1.43005 -0.34669,0.50681 -0.69998,1.02347 -1.05987,1.54999 -0.35992,0.52654 -0.7065,1.03648 -1.03974,1.52985 -0.33326,0.49337 -0.64322,0.95337 -0.92987,1.38 -0.28667,0.42664 -0.52338,0.77993 -0.71014,1.05988 -0.18678,-0.23966 -0.44017,-0.58289 -0.76019,-1.02967 -0.32004,-0.44677 -0.67008,-0.94685 -1.05011,-1.50024 -0.38006,-0.55338 -0.77668,-1.1267 -1.18988,-1.71997 -0.41322,-0.59325 -0.79652,-1.1499 -1.14991,-1.66992 -0.35339,-0.52001 -0.66671,-0.97666 -0.93994,-1.36994 -0.27324,-0.39326 -0.45665,-0.66334 -0.55023,-0.81024 0,0.0936 0.0101,0.20702 0.0302,0.34027 0.0201,0.13327 0.0302,0.25992 0.0302,0.37995 l 0,10.18005 -1.36047,0 z"
         style="font-size:20px"
         id="path3026" />
      <path
         d="m 367.8481,708.03125 c -0.26653,-0.6132 -0.57974,-1.36647 -0.93964,-2.25983 -0.35991,-0.89334 -0.73334,-1.8401 -1.1203,-2.84027 l -5.47973,0 c -0.38656,1.00017 -0.75989,1.94693 -1.12,2.84027 -0.36011,0.89336 -0.67342,1.64663 -0.93994,2.25983 l -1.35986,0 c 0.19978,-0.48014 0.4663,-1.11684 0.79956,-1.9101 0.33325,-0.79325 0.69325,-1.6632 1.08001,-2.60986 0.38676,-0.94665 0.78685,-1.93003 1.20026,-2.95013 0.41341,-1.0201 0.81339,-2.00347 1.19995,-2.95014 0.38655,-0.94664 0.7432,-1.81324 1.06995,-2.59979 0.32673,-0.78653 0.59671,-1.42658 0.80993,-1.92017 0.20019,0.49359 0.46692,1.13364 0.80017,1.92017 0.33325,0.78655 0.69325,1.65315 1.08002,2.59979 0.38675,0.94667 0.79009,1.93004 1.21002,2.95014 0.41992,1.0201 0.82315,2.00348 1.20972,2.95013 0.38655,0.94666 0.74319,1.81661 1.06995,2.60986 0.32673,0.79326 0.59671,1.42996 0.80993,1.9101 z m -5,-11.43982 c -0.26653,0.62664 -0.5831,1.39324 -0.94971,2.29981 -0.36662,0.90658 -0.74321,1.85995 -1.12976,2.8601 l 4.55994,0 c -0.39999,-1.00015 -0.78004,-1.95352 -1.14014,-2.8601 -0.36011,-0.90657 -0.67343,-1.67317 -0.93994,-2.29981 -0.0269,-0.0533 -0.0602,-0.14332 -0.1001,-0.27008 -0.0399,-0.12674 -0.0733,-0.24342 -0.1001,-0.35004 -0.0265,0.10662 -0.0597,0.2233 -0.0998,0.35004 -0.0401,0.12676 -0.0736,0.21679 -0.1004,0.27008 z"
         style="font-size:20px"
         id="path3028" />
      <path
         d="m 371.65933,708.03125 0,-14.27979 3.46009,0 c 0.60017,2e-5 1.18021,0.0833 1.74011,0.24994 0.55989,0.16664 1.05651,0.4233 1.48987,0.76996 0.43334,0.34669 0.78002,0.78004 1.04003,1.30005 0.26,0.52003 0.39001,1.13995 0.39002,1.85974 -10e-6,0.79998 -0.17996,1.55997 -0.53986,2.27997 -0.35991,0.72002 -0.95327,1.2733 -1.78009,1.65985 0.12003,0.2002 0.28004,0.46693 0.48004,0.80017 0.19999,0.33326 0.42002,0.69662 0.6601,1.09009 0.24006,0.39348 0.4901,0.80353 0.75012,1.23016 0.26,0.42664 0.50994,0.83324 0.74982,1.21979 0.23986,0.38656 0.45979,0.73985 0.65979,1.05988 0.19998,0.32003 0.35999,0.57342 0.48004,0.76019 l -1.66016,0 c -0.10661,-0.15991 -0.24659,-0.37984 -0.41992,-0.65979 -0.17335,-0.27995 -0.36662,-0.59326 -0.57983,-0.93994 -0.21323,-0.34668 -0.43987,-0.7134 -0.67993,-1.10016 -0.24008,-0.38676 -0.47344,-0.7668 -0.70008,-1.14014 -0.22665,-0.37332 -0.44332,-0.72662 -0.65002,-1.05987 -0.20671,-0.33325 -0.38331,-0.61991 -0.52979,-0.85999 -0.13347,0.0265 -0.27354,0.0397 -0.42022,0.0397 -0.1467,0 -0.29328,0 -0.43976,0 l -2.13989,0 0,5.72021 z m 1.36048,-7.02026 2.11975,0 c 0.64005,0 1.17339,-0.1066 1.60003,-0.31983 0.42663,-0.21321 0.76324,-0.47647 1.00983,-0.78979 0.24657,-0.31331 0.41991,-0.64666 0.52002,-1.00006 0.10009,-0.35339 0.15014,-0.67677 0.15015,-0.97016 -1e-5,-0.36009 -0.07,-0.71349 -0.20996,-1.06018 -0.13999,-0.34667 -0.34334,-0.65662 -0.61005,-0.92987 -0.26673,-0.27322 -0.6068,-0.49315 -1.0202,-0.65979 -0.41342,-0.16661 -0.88665,-0.24992 -1.41968,-0.24994 l -2.13989,0 z"
         style="font-size:20px"
         id="path3030" />
      <path
         d="m 392.53113,708.03125 c -0.99977,-1.26668 -1.95965,-2.49664 -2.87964,-3.68988 -0.92001,-1.19323 -1.88009,-2.42991 -2.88025,-3.71002 -0.24008,0.24008 -0.48005,0.47343 -0.71991,0.70007 -0.23987,0.22665 -0.48656,0.45329 -0.74005,0.67993 0,1.04005 0.003,2.04336 0.0101,3.00995 0.007,0.9666 0.0101,1.96991 0.0101,3.00995 l -1.50024,0 0,-14.27979 1.50024,0 0,5.99976 c 0,0.10662 -0.007,0.21322 -0.0201,0.31982 -0.0134,0.10662 -0.0267,0.21994 -0.0397,0.33997 0.0663,-0.0932 0.12949,-0.17313 0.18951,-0.23987 0.06,-0.0667 0.12339,-0.14668 0.19013,-0.23987 1.06688,-1.00015 2.11364,-2.02686 3.14025,-3.08013 1.02661,-1.05326 2.07316,-2.08648 3.13965,-3.09968 l 1.76026,0 c -0.97332,0.98635 -1.94663,1.97623 -2.91993,2.96967 -0.97331,0.99346 -1.95333,1.98355 -2.94006,2.97028 1.11979,1.4266 2.19309,2.81657 3.21991,4.16992 1.02681,1.35335 2.09339,2.74333 3.19977,4.16992 z"
         style="font-size:20px"
         id="path3032" />
      <path
         d="m 403.89363,694.49121 -0.49988,1.09985 c -0.46672,-0.18634 -0.98338,-0.34626 -1.54998,-0.47973 -0.56662,-0.13345 -1.11665,-0.20018 -1.65009,-0.2002 -0.47974,2e-5 -0.90963,0.06 -1.28967,0.18006 -0.38005,0.12005 -0.70344,0.28677 -0.97016,0.50018 -0.26672,0.21343 -0.47007,0.45676 -0.61004,0.72998 -0.13998,0.27325 -0.20997,0.56998 -0.20996,0.8902 -1e-5,0.38656 0.1067,0.71646 0.32013,0.98968 0.21341,0.27325 0.49336,0.50986 0.83984,0.70984 0.34647,0.2 0.73974,0.38341 1.17981,0.55023 0.44006,0.16684 0.89009,0.33682 1.3501,0.50995 0.45999,0.17315 0.91002,0.36978 1.35009,0.58991 0.44006,0.22014 0.83343,0.49022 1.18012,0.81024 0.34667,0.32003 0.62662,0.69998 0.83984,1.13983 0.21321,0.43987 0.31982,0.97311 0.31983,1.59973 -10e-6,0.62704 -0.11334,1.1905 -0.33997,1.69037 -0.22665,0.49988 -0.55329,0.92652 -0.97992,1.27991 -0.42664,0.35339 -0.94992,0.62673 -1.56982,0.82001 -0.61992,0.19327 -1.32335,0.28991 -2.11029,0.28991 -0.5599,0 -1.07646,-0.0499 -1.54969,-0.14984 -0.47323,-0.0999 -0.89325,-0.21993 -1.26007,-0.36011 -0.36682,-0.14017 -0.68685,-0.2835 -0.96008,-0.42999 -0.27324,-0.14648 -0.48981,-0.27323 -0.64972,-0.38025 l 0.61951,-1.19995 c 0.24007,0.14689 0.51015,0.29368 0.81024,0.44037 0.30009,0.14669 0.6134,0.27334 0.93994,0.37994 0.32654,0.10661 0.66314,0.19328 1.00983,0.26001 0.34667,0.0667 0.68684,0.1001 1.02051,0.1001 0.35969,0 0.75622,-0.0501 1.18957,-0.15015 0.43334,-0.10009 0.83343,-0.26346 1.20026,-0.49011 0.36681,-0.22664 0.67351,-0.51666 0.9201,-0.87005 0.24658,-0.3534 0.36987,-0.78339 0.36987,-1.28998 0,-0.62663 -0.18331,-1.13322 -0.54992,-1.51978 -0.36663,-0.38655 -0.82327,-0.71654 -1.36994,-0.98999 -0.54667,-0.27343 -1.14004,-0.51686 -1.78009,-0.73028 -0.64006,-0.21342 -1.23342,-0.46346 -1.78009,-0.75013 -0.54667,-0.28665 -1.00332,-0.6433 -1.36993,-1.06994 -0.36662,-0.42663 -0.54993,-0.97991 -0.54993,-1.65985 0,-0.48014 0.0966,-0.94349 0.28992,-1.39008 0.19328,-0.44656 0.47658,-0.83647 0.84991,-1.16974 0.37333,-0.33324 0.82662,-0.59986 1.35987,-0.79986 0.53324,-0.19998 1.13331,-0.29998 1.80023,-0.29999 0.37312,10e-6 0.75642,0.0299 1.1499,0.0897 0.39347,0.0598 0.76354,0.13307 1.11023,0.21973 0.34667,0.0867 0.65999,0.17671 0.93994,0.27008 0.27994,0.0934 0.49316,0.17345 0.63965,0.24017 z"
         style="font-size:20px"
         id="path3034" />
    </g>
  </g>
</svg>
