<?xml version="1.0" encoding="UTF-8" standalone="no"?>
<svg
   xmlns:dc="http://purl.org/dc/elements/1.1/"
   xmlns:cc="http://creativecommons.org/ns#"
   xmlns:rdf="http://www.w3.org/1999/02/22-rdf-syntax-ns#"
   xmlns:svg="http://www.w3.org/2000/svg"
   xmlns="http://www.w3.org/2000/svg"
   xmlns:sodipodi="http://sodipodi.sourceforge.net/DTD/sodipodi-0.dtd"
   xmlns:inkscape="http://www.inkscape.org/namespaces/inkscape"
   viewBox="0 26 209.239 66.887944"
   id="svg2"
   version="1.1"
   inkscape:version="0.48.0 r9654"
   width="100%"
   height="100%"
   sodipodi:docname="client8.svg">
  <metadata
     id="metadata14">
    <rdf:RDF>
      <cc:Work
         rdf:about="">
        <dc:format>image/svg+xml</dc:format>
        <dc:type
           rdf:resource="http://purl.org/dc/dcmitype/StillImage" />
      </cc:Work>
    </rdf:RDF>
  </metadata>
  <defs
     id="defs12" />
  <sodipodi:namedview
     pagecolor="#ffffff"
     bordercolor="#666666"
     borderopacity="1"
     objecttolerance="10"
     gridtolerance="10"
     guidetolerance="10"
     inkscape:pageopacity="0"
     inkscape:pageshadow="2"
     inkscape:window-width="1858"
     inkscape:window-height="1057"
     id="namedview10"
     showgrid="false"
     inkscape:zoom="1.4396498"
     inkscape:cx="435.60132"
     inkscape:cy="102.25623"
     inkscape:window-x="54"
     inkscape:window-y="-8"
     inkscape:window-maximized="1"
     inkscape:current-layer="svg2"
     fit-margin-top="0"
     fit-margin-left="0"
     fit-margin-right="0"
     fit-margin-bottom="0" />
  <g
     style="font-size:27.80830383px;font-style:normal;font-variant:normal;font-weight:normal;font-stretch:normal;text-align:start;line-height:125%;letter-spacing:0px;word-spacing:0px;writing-mode:lr-tb;text-anchor:start;fill:#1a1a1a;fill-opacity:1;stroke:none;font-family:Brandon Grotesque Black;-inkscape-font-specification:Brandon Grotesque Black"
     id="text2991"
     transform="translate(-21.785527,8.456795)">
    <path
       d="m 105.8917,61.895267 -4.07348,0 0,-19.769966 4.07348,0 z"
       style="font-weight:bold;fill:#1a1a1a;-inkscape-font-specification:Roboto Bold"
       id="path3006"
       inkscape:connector-curvature="0" />
    <path
       d="m 125.72956,61.895267 -4.07348,0 -7.92971,-13.007985 0,13.007985 -4.07348,0 0,-19.769966 4.07348,0 7.94329,13.035143 0,-13.035143 4.0599,0 z"
       style="font-weight:bold;fill:#1a1a1a;-inkscape-font-specification:Roboto Bold"
       id="path3008"
       inkscape:connector-curvature="0" />
    <path
       d="m 145.55384,52.458368 c -2e-5,1.511722 -0.20369,2.867285 -0.61102,4.066692 -0.40737,1.199419 -0.97992,2.215525 -1.71765,3.048323 -0.73777,0.832802 -1.62262,1.473243 -2.65455,1.921325 -1.03197,0.448083 -2.16801,0.672125 -3.40815,0.672125 -1.24016,0 -2.37621,-0.224042 -3.40815,-0.672125 -1.03195,-0.448082 -1.92133,-1.088523 -2.66813,-1.921325 -0.74681,-0.832798 -1.32841,-1.848904 -1.74481,-3.048323 -0.4164,-1.199407 -0.6246,-2.55497 -0.6246,-4.066692 l 0,-0.86901 c 0,-1.50265 0.20594,-2.85595 0.61781,-4.059904 0.41188,-1.203924 0.98895,-2.22682 1.73123,-3.06869 0.74228,-0.841834 1.62939,-1.486802 2.66135,-1.934903 1.03194,-0.448064 2.16798,-0.672105 3.40814,-0.672125 1.24014,2e-5 2.37619,0.224061 3.40815,0.672125 1.03193,0.448101 1.91905,1.093069 2.66134,1.934903 0.74226,0.84187 1.31934,1.864766 1.73123,3.06869 0.41186,1.203954 0.61779,2.557254 0.61781,4.059904 z m -4.12779,-0.896167 c -2e-5,-2.072937 -0.37116,-3.648015 -1.11342,-4.725239 -0.74229,-1.077193 -1.8014,-1.615798 -3.17732,-1.615814 -1.37594,1.6e-5 -2.43504,0.538621 -3.17731,1.615814 -0.74229,1.077224 -1.11343,2.652302 -1.11342,4.725239 l 0,0.896167 c -1e-5,1.031957 0.0973,1.943963 0.29193,2.736022 0.19462,0.792071 0.47523,1.457406 0.84185,1.996006 0.36661,0.538609 0.81696,0.945957 1.35104,1.222044 0.53407,0.276095 1.14509,0.414141 1.83307,0.414138 1.37592,3e-6 2.4305,-0.543128 3.16374,-1.629393 0.73321,-1.086256 1.09982,-2.66586 1.09984,-4.738817 z"
       style="font-weight:bold;fill:#1a1a1a;-inkscape-font-specification:Roboto Bold"
       id="path3010"
       inkscape:connector-curvature="0" />
    <path
       d="m 155.84617,56.993511 4.48083,-14.86821 4.53515,0 -6.88419,19.769966 -4.25,0 -6.85703,-19.769966 4.52157,0 z"
       style="letter-spacing:-2.8831768px;fill:#1a1a1a"
       id="path3012"
       inkscape:connector-curvature="0" />
    <path
       d="m 175.01411,57.821785 -7.14217,0 -1.35783,4.073482 -4.33147,0 7.35943,-19.769966 3.77476,0 7.40016,19.769966 -4.33147,0 z m -6.04233,-3.29952 4.94249,0 -2.48482,-7.400159 z"
       style="letter-spacing:0px;fill:#1a1a1a"
       id="path3014"
       inkscape:connector-curvature="0" />
    <path
       d="m 183.54127,61.895267 0,-19.769966 5.47204,0 c 2.27209,2e-5 4.2002,0.814716 5.78435,2.44409 1.58411,1.629408 2.37618,3.706882 2.3762,6.232427 l 0,2.416933 c -2e-5,2.534617 -0.79209,4.614354 -2.3762,6.239216 -1.58415,1.624868 -3.51226,2.4373 -5.78435,2.4373 z m 0.73323,-19.036739 0,18.303513 4.73881,0 c 2.05484,0 3.80643,-0.75133 5.2548,-2.253994 1.44833,-1.502657 2.1725,-3.399088 2.17252,-5.689296 l 0,-2.457668 c -2e-5,-2.263032 -0.72419,-4.145884 -2.17252,-5.648561 -1.44837,-1.502644 -3.19996,-2.253975 -5.2548,-2.253994 z"
       style="font-size:27.80830383px;font-weight:200;text-align:start;line-height:125%;writing-mode:lr-tb;text-anchor:start;fill:#1a1a1a;font-family:Roboto;-inkscape-font-specification:Roboto Ultra-Light"
       id="path3016"
       inkscape:connector-curvature="0" />
    <path
       d="m 212.38152,51.955971 -9.91214,0 0,9.20607 11.29713,0 0,0.733226 -12.03036,0 0,-19.769966 12.03036,0 0,0.733227 -11.29713,0 0,8.364217 9.91214,0 z"
       style="font-size:27.80830383px;font-weight:200;text-align:start;line-height:125%;writing-mode:lr-tb;text-anchor:start;fill:#1a1a1a;font-family:Roboto;-inkscape-font-specification:Roboto Ultra-Light"
       id="path3018"
       inkscape:connector-curvature="0" />
    <path
       d="m 222.79606,59.967153 0.35304,1.072683 0.0815,0 0.35303,-1.072683 6.63978,-17.841852 0.80112,0 -7.38659,19.769966 -0.89616,0 -7.38658,-19.769966 0.80112,0 z"
       style="font-size:27.80830383px;font-weight:200;text-align:start;line-height:125%;writing-mode:lr-tb;text-anchor:start;fill:#1a1a1a;font-family:Roboto;-inkscape-font-specification:Roboto Ultra-Light"
       id="path3020"
       inkscape:connector-curvature="0" />
  </g>
  <path
     style="fill:#1a1a1a;fill-opacity:1;fill-rule:evenodd;stroke:none"
     inkscape:transform-center-x="2.0761883"
     inkscape:transform-center-y="1.3227596"
     d="M 25.187077,74.936679 60.919524,85.239102 18.694608,55.720746 19.93836,92.887944 34.963764,43.607996 0,56.276172 51.511124,55.337833 28.658578,26 45.4688,74.700027 66.308914,43.900074 z"
     id="path3003"
     inkscape:connector-curvature="0" />
</svg>
