<?xml version="1.0" encoding="UTF-8" standalone="no"?>
<svg
   xmlns:dc="http://purl.org/dc/elements/1.1/"
   xmlns:cc="http://creativecommons.org/ns#"
   xmlns:rdf="http://www.w3.org/1999/02/22-rdf-syntax-ns#"
   xmlns:svg="http://www.w3.org/2000/svg"
   xmlns="http://www.w3.org/2000/svg"
   xmlns:sodipodi="http://sodipodi.sourceforge.net/DTD/sodipodi-0.dtd"
   xmlns:inkscape="http://www.inkscape.org/namespaces/inkscape"
   version="1.1"
   x="0px"
   y="0px"
   viewBox="0 0 256.95932 52.316564"
   xml:space="preserve"
   id="svg2"
   inkscape:version="0.48.0 r9654"
   width="100%"
   height="100%"
   sodipodi:docname="client7.svg"><metadata
   id="metadata40"><rdf:RDF><cc:Work
       rdf:about=""><dc:format>image/svg+xml</dc:format><dc:type
         rdf:resource="http://purl.org/dc/dcmitype/StillImage" /></cc:Work></rdf:RDF></metadata><defs
   id="defs38" /><sodipodi:namedview
   pagecolor="#ffffff"
   bordercolor="#666666"
   borderopacity="1"
   objecttolerance="10"
   gridtolerance="10"
   guidetolerance="10"
   inkscape:pageopacity="0"
   inkscape:pageshadow="2"
   inkscape:window-width="1858"
   inkscape:window-height="1057"
   id="namedview36"
   showgrid="false"
   fit-margin-top="0"
   fit-margin-left="0"
   fit-margin-right="0"
   fit-margin-bottom="0"
   inkscape:zoom="1.4396498"
   inkscape:cx="165.4098"
   inkscape:cy="94.815049"
   inkscape:window-x="54"
   inkscape:window-y="-8"
   inkscape:window-maximized="1"
   inkscape:current-layer="svg2" />
<style
   type="text/css"
   id="style4">
	.st0{clip-path:url(#XMLID_5_);fill:#1d1d1d;}
	.st1{clip-path:url(#XMLID_6_);fill:#1d1d1d;}
	.st2{opacity:0.5;}
</style>

<g
   style="font-size:144px;font-style:normal;font-variant:normal;font-weight:normal;font-stretch:normal;text-align:start;line-height:125%;letter-spacing:0px;word-spacing:0px;writing-mode:lr-tb;text-anchor:start;fill:#000000;fill-opacity:1;stroke:none;font-family:Brandon Grotesque Black;-inkscape-font-specification:Brandon Grotesque Black"
   id="text3017"
   transform="translate(-14.439065,140.83904)"><path
     d="m 76.368902,-101.58278 c 0.0037,0.186 0.06825,0.345 0.193497,0.47699 0.125245,0.132 0.288742,0.201 0.490494,0.207 l 8.927885,0 c 2.201206,-0.0375 4.04468,-0.69149 5.530428,-1.96197 1.485711,-1.27048 2.258201,-2.93246 2.317471,-4.98594 -0.08177,-1.64397 -0.647262,-2.93695 -1.696479,-3.87895 -1.049254,-0.94198 -2.09174,-1.60497 -3.127459,-1.98897 0.914222,-0.45748 1.821709,-1.17147 2.722465,-2.14198 0.900719,-0.97047 1.385212,-2.15245 1.453481,-3.54595 -0.05702,-1.93271 -0.816009,-3.52118 -2.276971,-4.76544 -1.460997,-1.24421 -3.281972,-1.8877 -5.462929,-1.93047 l -8.387892,0 c -0.201752,0.006 -0.36525,0.075 -0.490495,0.20699 -0.125251,0.13203 -0.18975,0.29102 -0.193496,0.477 z m 5.615927,-14.29182 0,-5.03993 2.807964,0 c 0.703479,0.012 1.29447,0.24002 1.772977,0.68399 0.47848,0.44401 0.727477,1.03201 0.746991,1.76398 -0.01951,0.73801 -0.26851,1.35 -0.746991,1.83597 -0.478507,0.48601 -1.069498,0.73801 -1.772977,0.75599 z m 0,9.82788 0,-5.14794 2.915963,0 c 0.737227,0.015 1.404718,0.25501 2.002473,0.71999 0.597729,0.46501 0.914224,1.065 0.949489,1.79998 -0.02026,0.75525 -0.276761,1.37774 -0.76949,1.86748 -0.492758,0.48975 -1.100249,0.74324 -1.822477,0.76049 z"
     style="font-size:36px"
     id="path3324"
     inkscape:connector-curvature="0" /><path
     d="m 98.376714,-101.58278 c 0.0037,0.186 0.06825,0.345 0.193497,0.47699 0.125245,0.132 0.288743,0.201 0.490494,0.207 l 4.283945,0 c 0.18599,-0.006 0.34499,-0.075 0.47699,-0.207 0.13199,-0.13199 0.20099,-0.29099 0.207,-0.47699 l 0,-9.17988 2.48397,0 4.78794,9.53988 c 0.0375,0.0765 0.10648,0.14849 0.207,0.21599 0.10048,0.0675 0.22348,0.1035 0.36899,0.108 l 4.78794,0 c 0.30897,-0.0142 0.51897,-0.12975 0.62999,-0.34649 0.11098,-0.21675 0.10498,-0.44925 -0.018,-0.6975 l -4.93194,-9.14388 c 1.59222,-0.64573 2.8717,-1.59522 3.83845,-2.84846 0.96672,-1.25322 1.46321,-2.7157 1.48949,-4.38744 -0.057,-2.19821 -0.82501,-4.02968 -2.30397,-5.49443 -1.479,-1.46471 -3.32698,-2.2252 -5.54393,-2.28147 l -10.763865,0 c -0.201751,0.006 -0.365249,0.075 -0.490494,0.20699 -0.125252,0.13203 -0.18975,0.29102 -0.193497,0.477 z m 5.651926,-13.75182 0,-5.61593 5.32793,0 c 0.75973,0.0195 1.40022,0.28652 1.92148,0.80099 0.52122,0.51451 0.79272,1.1595 0.81449,1.93497 -0.0218,0.78151 -0.29326,1.4505 -0.81449,2.00698 -0.52126,0.55651 -1.16175,0.8475 -1.92148,0.87299 z"
     style="font-size:36px"
     id="path3326"
     inkscape:connector-curvature="0" /><path
     d="m 119.86594,-100.89879 3.95994,0 c 0.35774,-0.009 0.64124,-0.099 0.85049,-0.27 0.20925,-0.17099 0.35774,-0.36899 0.4455,-0.59399 l 1.29598,-2.87996 9.79188,0 1.29598,2.84396 c 0.15373,0.33675 0.32323,0.57225 0.50849,0.70649 0.18523,0.13425 0.43573,0.19875 0.75149,0.1935 l 3.99595,0 c 0.27522,-0.01 0.47172,-0.10725 0.58949,-0.2925 0.11773,-0.18524 0.12523,-0.39974 0.0225,-0.64349 l -11.26785,-24.22768 c -0.057,-0.11098 -0.14101,-0.20398 -0.252,-0.279 -0.11101,-0.075 -0.23101,-0.11397 -0.35999,-0.117 l -0.36,0 c -0.12901,0.003 -0.24901,0.042 -0.35999,0.117 -0.11101,0.075 -0.19501,0.16802 -0.252,0.279 l -11.26786,24.22768 c -0.10274,0.24375 -0.0952,0.45825 0.0225,0.6435 0.11775,0.18524 0.31425,0.28274 0.5895,0.29249 z m 8.71188,-8.63989 2.69997,-5.93992 0.036,0 2.73596,5.93992 z"
     style="letter-spacing:-5.69000053px"
     id="path3328"
     inkscape:connector-curvature="0" /><path
     d="m 148.63173,-100.93479 c 0.0547,0.111 0.13424,0.204 0.2385,0.279 0.10424,0.075 0.22874,0.114 0.3735,0.117 l 0.35999,0 c 0.14474,-0.003 0.26924,-0.042 0.3735,-0.117 0.10423,-0.075 0.18373,-0.168 0.23849,-0.279 l 11.30386,-24.22769 c 0.10272,-0.24372 0.0952,-0.45822 -0.0225,-0.64349 -0.11777,-0.18522 -0.31427,-0.28272 -0.58949,-0.29249 l -4.78794,0 c -0.14702,0.005 -0.27602,0.0488 -0.387,0.1305 -0.11101,0.0818 -0.18601,0.17027 -0.22499,0.26549 l -5.93993,13.13983 -0.216,0 -5.93992,-13.13983 c -0.039,-0.0952 -0.114,-0.18372 -0.225,-0.2655 -0.111,-0.0817 -0.24,-0.12522 -0.38699,-0.13049 l -4.78794,0 c -0.27525,0.01 -0.47174,0.10727 -0.58949,0.29249 -0.11775,0.18528 -0.12525,0.39977 -0.0225,0.64349 z"
     style="letter-spacing:-1.75999999px"
     id="path3330"
     inkscape:connector-curvature="0" /><path
     d="m 160.8798,-113.46263 c 0.0885,3.68846 1.34248,6.74242 3.76195,9.16188 2.41947,2.41947 5.47342,3.67346 9.16189,3.76196 3.68993,-0.0885 6.74989,-1.34248 9.17988,-3.76196 2.42994,-2.41946 3.68992,-5.47342 3.77995,-9.16188 -0.09,-3.69143 -1.35001,-6.75739 -3.77995,-9.19788 -2.42999,-2.44044 -5.48995,-3.70643 -9.17988,-3.79795 -3.68847,0.0915 -6.74242,1.35751 -9.16189,3.79795 -2.41947,2.44049 -3.67345,5.50645 -3.76195,9.19788 z m 5.75993,0 c 0.0532,-2.03396 0.75673,-3.73493 2.11047,-5.10293 1.35372,-1.36796 3.0382,-2.07895 5.05344,-2.13297 2.03245,0.054 3.72743,0.76501 5.08493,2.13297 1.35746,1.368 2.06245,3.06897 2.11497,5.10293 -0.0525,2.01524 -0.75751,3.69971 -2.11497,5.05344 -1.3575,1.35374 -3.05248,2.05723 -5.08493,2.11047 -2.01524,-0.0532 -3.69972,-0.75673 -5.05344,-2.11047 -1.35374,-1.35373 -2.05723,-3.0382 -2.11047,-5.05344 z"
     style="font-size:36px"
     id="path3332"
     inkscape:connector-curvature="0" /><path
     d="m 194.36199,-101.58278 c 0.006,0.186 0.075,0.345 0.207,0.47699 0.13199,0.132 0.29099,0.201 0.47699,0.207 l 4.31994,0 c 0.18599,-0.006 0.34499,-0.075 0.477,-0.207 0.13198,-0.13199 0.20098,-0.29099 0.20699,-0.47699 l 0,-19.22375 5.14794,0 c 0.20173,-0.006 0.36523,-0.075 0.49049,-0.207 0.12523,-0.13198 0.18973,-0.29098 0.1935,-0.47699 l 0,-3.92395 c -0.004,-0.18598 -0.0683,-0.34497 -0.1935,-0.477 -0.12526,-0.13197 -0.28876,-0.20097 -0.49049,-0.20699 l -15.9838,0 c -0.20174,0.006 -0.36524,0.075 -0.49049,0.20699 -0.12525,0.13203 -0.18975,0.29102 -0.1935,0.477 l 0,3.92395 c 0.004,0.18601 0.0683,0.34501 0.1935,0.47699 0.12525,0.13202 0.28875,0.20102 0.49049,0.207 l 5.14794,0 z"
     style="font-size:36px"
     id="path3334"
     inkscape:connector-curvature="0" /><path
     d="m 209.47359,-101.58278 c 0.006,0.186 0.075,0.345 0.207,0.47699 0.132,0.132 0.29099,0.201 0.47699,0.207 l 4.31995,0 c 0.18599,-0.006 0.34498,-0.075 0.47699,-0.207 0.13199,-0.13199 0.20099,-0.29099 0.207,-0.47699 l 0,-23.83169 c -0.006,-0.18598 -0.075,-0.34497 -0.207,-0.477 -0.13201,-0.13197 -0.291,-0.20097 -0.47699,-0.20699 l -4.31995,0 c -0.186,0.006 -0.345,0.075 -0.47699,0.20699 -0.132,0.13203 -0.201,0.29102 -0.207,0.477 z"
     style="font-size:36px"
     id="path3336"
     inkscape:connector-curvature="0" /><path
     d="m 219.52043,-113.46263 c 0.0885,3.68846 1.34248,6.74242 3.76195,9.16188 2.41946,2.41947 5.47342,3.67346 9.16188,3.76196 3.68994,-0.0885 6.74989,-1.34248 9.17988,-3.76196 2.42995,-2.41946 3.68993,-5.47342 3.77996,-9.16188 -0.09,-3.69143 -1.35001,-6.75739 -3.77996,-9.19788 -2.42999,-2.44044 -5.48994,-3.70643 -9.17988,-3.79795 -3.68846,0.0915 -6.74242,1.35751 -9.16188,3.79795 -2.41947,2.44049 -3.67346,5.50645 -3.76195,9.19788 z m 5.75992,0 c 0.0532,-2.03396 0.75674,-3.73493 2.11048,-5.10293 1.35372,-1.36796 3.0382,-2.07895 5.05343,-2.13297 2.03246,0.054 3.72744,0.76501 5.08494,2.13297 1.35746,1.368 2.06245,3.06897 2.11497,5.10293 -0.0525,2.01524 -0.75751,3.69971 -2.11497,5.05344 -1.3575,1.35374 -3.05248,2.05723 -5.08494,2.11047 -2.01523,-0.0532 -3.69971,-0.75673 -5.05343,-2.11047 -1.35374,-1.35373 -2.05723,-3.0382 -2.11048,-5.05344 z"
     style="font-size:36px"
     id="path3338"
     inkscape:connector-curvature="0" /><path
     d="m 249.76265,-101.58278 c 0.006,0.186 0.075,0.345 0.207,0.47699 0.132,0.132 0.291,0.201 0.477,0.207 l 4.28394,0 c 0.20174,-0.006 0.36524,-0.075 0.49049,-0.207 0.12524,-0.13199 0.18974,-0.29099 0.1935,-0.47699 l 0,-13.42783 c 0.001,2e-5 0.007,2e-5 0.018,0 0.0105,2e-5 0.0165,2e-5 0.018,0 l 14.21982,14.29182 c 0.0442,0.039 0.11772,0.078 0.2205,0.117 0.10272,0.039 0.18522,0.06 0.24749,0.063 l 0.576,0 c 0.18597,-0.004 0.34497,-0.0675 0.47699,-0.189 0.13197,-0.1215 0.20097,-0.2745 0.207,-0.45899 l 0,-24.22769 c -0.006,-0.18598 -0.075,-0.34497 -0.207,-0.477 -0.13202,-0.13197 -0.29102,-0.20097 -0.47699,-0.20699 l -4.31995,0 c -0.20177,0.006 -0.36526,0.075 -0.49049,0.20699 -0.12527,0.13203 -0.18977,0.29102 -0.1935,0.477 l 0,12.77983 c -0.002,1e-5 -0.008,1e-5 -0.018,0 -0.0105,1e-5 -0.0165,1e-5 -0.018,0 l -14.36382,-13.82382 -0.89998,0 c -0.18601,0.005 -0.345,0.0675 -0.477,0.189 -0.132,0.12152 -0.201,0.27452 -0.20699,0.45899 z"
     style="font-size:36px"
     id="path3340"
     inkscape:connector-curvature="0" /></g><g
   style="font-size:144px;font-style:normal;font-variant:normal;font-weight:normal;font-stretch:normal;text-align:start;line-height:125%;letter-spacing:0px;word-spacing:0px;writing-mode:lr-tb;text-anchor:start;fill:#000000;fill-opacity:1;stroke:none;font-family:Brandon Grotesque Black;-inkscape-font-specification:Brandon Grotesque Black"
   id="text3021"
   transform="translate(-14.439065,140.83904)" /><g
   style="font-size:55.89283371px;font-style:normal;font-variant:normal;font-weight:normal;font-stretch:normal;text-align:start;line-height:125%;letter-spacing:0px;word-spacing:0px;writing-mode:lr-tb;text-anchor:start;fill:#cccccc;fill-opacity:1;stroke:none;font-family:Brandon Grotesque Black;-inkscape-font-specification:Brandon Grotesque Black"
   id="text3025"
   transform="translate(-14.439065,140.83904)"><path
     d="m 42.893956,-89.712226 c 0.0058,0.288776 0.105958,0.535632 0.30042,0.740569 0.194452,0.204938 0.448295,0.312065 0.76153,0.321381 l 13.861245,0 c 3.417545,-0.05822 6.279684,-1.073594 8.586425,-3.046121 2.306683,-1.972522 3.506034,-4.552872 3.598056,-7.741057 -0.126955,-2.552396 -1.004926,-4.559846 -2.633917,-6.022376 -1.62905,-1.46249 -3.247591,-2.49184 -4.855627,-3.08804 1.419402,-0.71027 2.828347,-1.8188 4.226842,-3.32558 1.398437,-1.50673 2.150651,-3.34186 2.256644,-5.50537 -0.08853,-3.00068 -1.266919,-5.46692 -3.535177,-7.39872 -2.268314,-1.93174 -5.09552,-2.93081 -8.481628,-2.99722 l -13.022863,0 c -0.313235,0.009 -0.567078,0.11649 -0.761531,0.32138 -0.194463,0.20498 -0.294602,0.45184 -0.300419,0.74057 z m 8.71917,-22.189174 0,-7.82489 4.359585,0 c 1.092205,0.0187 2.009766,0.37264 2.752686,1.06195 0.742878,0.68936 1.129465,1.60227 1.159762,2.73871 -0.0303,1.14582 -0.416883,2.09598 -1.159761,2.8505 -0.74292,0.75457 -1.660482,1.14581 -2.752687,1.17373 z m 0,15.258551 0,-7.992571 4.527261,0 c 1.144604,0.0233 2.180936,0.39592 3.108998,1.11784 0.92802,0.72195 1.419405,1.65349 1.474156,2.79461 -0.03146,1.172578 -0.429693,2.139044 -1.194695,2.8994 -0.765044,0.760374 -1.708222,1.153948 -2.829538,1.180721 z"
     id="path3344"
     inkscape:connector-curvature="0" /></g><g
   transform="matrix(-1,0,0,1,-14.439065,140.83904)"
   style="font-size:55.89283371px;font-style:normal;font-variant:normal;font-weight:normal;font-stretch:normal;text-align:start;line-height:125%;letter-spacing:0px;word-spacing:0px;writing-mode:lr-tb;text-anchor:start;fill:#1a1a1a;fill-opacity:1;stroke:none;font-family:Brandon Grotesque Black;-inkscape-font-specification:Brandon Grotesque Black"
   id="text3025-3"><path
     d="m -41.54674,-89.584426 c 0.0058,0.288776 0.105957,0.535632 0.300419,0.740569 0.194452,0.204938 0.448296,0.312065 0.761531,0.321381 l 13.861244,0 c 3.417546,-0.05822 6.279684,-1.073594 8.586425,-3.046121 2.306684,-1.972522 3.506034,-4.552872 3.598056,-7.741057 -0.126954,-2.552396 -1.004926,-4.559846 -2.633917,-6.022376 -1.62905,-1.46249 -3.247591,-2.49184 -4.855626,-3.08804 1.419401,-0.71027 2.828347,-1.8188 4.226841,-3.32558 1.398437,-1.50673 2.150651,-3.34186 2.256644,-5.50537 -0.08853,-3.00068 -1.266918,-5.46692 -3.535177,-7.39872 -2.268314,-1.93174 -5.09552,-2.93081 -8.481628,-2.99722 l -13.022862,0 c -0.313235,0.009 -0.567079,0.11649 -0.761532,0.32138 -0.194463,0.20498 -0.294602,0.45184 -0.300418,0.74057 z m 8.719169,-22.189174 0,-7.82489 4.359585,0 c 1.092206,0.0187 2.009767,0.37264 2.752686,1.06195 0.742878,0.68936 1.129465,1.60227 1.159762,2.73871 -0.0303,1.14582 -0.416882,2.09598 -1.159761,2.8505 -0.74292,0.75457 -1.660481,1.14581 -2.752687,1.17373 z m 0,15.258551 0,-7.992571 4.527262,0 c 1.144603,0.0233 2.180935,0.39592 3.108997,1.11784 0.92802,0.72195 1.419405,1.65349 1.474156,2.79461 -0.03146,1.172578 -0.429693,2.139044 -1.194694,2.8994 -0.765045,0.760374 -1.708223,1.153948 -2.829538,1.180721 z"
     id="path3347"
     inkscape:connector-curvature="0" /></g><path
   style="fill:#1a1a1a;fill-opacity:1;fill-rule:evenodd;stroke:none"
   d="m 32.273683,4.8622933 c 0,2.6853712 -2.176923,4.8622934 -4.862294,4.8622934 -2.685371,0 -4.862293,-2.1769222 -4.862293,-4.8622934 0,-2.6853712 2.176922,-4.86229352668364 4.862293,-4.86229352668364 2.685371,0 4.862294,2.17692232668364 4.862294,4.86229352668364 z"
   id="path3050"
   inkscape:connector-curvature="0" /></svg>