<svg xmlns="http://www.w3.org/2000/svg" viewBox="0 0 238 125"><style>.st0{fill:#1d1d1d;}</style><path class="st0" d="M2.4 63.2h6.2V51.7l-6.9 7.4c-2.6 2.6-2.1 4.1.7 4.1zM11.2 65.8v47.6c0 2.9.6 2.9 2.2 1.3l25.1-27.1c1.9-2.1 3.8-5.6 3.8-8.5V65.7l-31.1.1zM40 1.5L13.5 30.1c-1.9 2.1-2.2 4.8-2.2 7.7v23.3l31-33.4V2.3c.1-2.4-.6-2.7-2.3-.8zM55.4 63.2c3.7 0 6.4-.8 8.4-2.9l25.3-27.1c1.9-2.1 1.7-3.6-1.2-3.6H44.1L12.9 63.2h42.5zM57.1 106.9v-16h-3.9v-6h3.9v-8.4h7v8.4h8.2v6h-8.2v14.9c0 2.7 1.4 3.8 3.8 3.8 1.6 0 2.9-.3 4.3-1v5.7c-1.7 1-3.7 1.6-6.3 1.6-5.1-.1-8.8-2.3-8.8-9zm21.3-22h7v30.5h-7V84.9zM90 100.2v-.1c0-8.7 6.2-15.9 14.9-15.9 9.7 0 14.6 7.6 14.6 16.4 0 .6-.1 1.3-.1 2H96.9c.8 5 4.3 7.7 8.8 7.7 3.4 0 5.8-1.3 8.3-3.6l4.1 3.6c-2.9 3.5-6.9 5.7-12.5 5.7-8.8 0-15.6-6.4-15.6-15.8zm22.5-2.2c-.5-4.5-3.1-8-7.7-8-4.3 0-7.3 3.3-7.9 8h15.6zm11.3-13.1h7v6.9c1.9-4.6 5.4-7.7 10.8-7.4v7.4h-.4c-6.1 0-10.4 4-10.4 12.1v11.6h-7V84.9zm22.1 0h7v4.7c2-2.9 4.8-5.4 9.5-5.4 6.9 0 10.9 4.6 10.9 11.7v19.4h-7V98c0-4.7-2.4-7.4-6.5-7.4-4 0-6.9 2.8-6.9 7.6v17.2h-7V84.9zm31.6 15.3v-.1c0-8.7 6.2-15.9 14.9-15.9 9.7 0 14.6 7.6 14.6 16.4 0 .6-.1 1.3-.1 2h-22.4c.7 5 4.3 7.7 8.8 7.7 3.4 0 5.8-1.3 8.2-3.6l4.1 3.6c-2.9 3.5-6.9 5.7-12.5 5.7-8.8 0-15.6-6.4-15.6-15.8zM200 98c-.5-4.5-3.1-8-7.7-8-4.3 0-7.3 3.3-7.9 8H200zm8.6 24.9l2.4-5.2c1.3.7 2.7 1.1 4.1 1.1 2 0 3.2-.9 4.3-3.5l-12.7-30.5h7.4l8.7 22.6 7.9-22.6h7.3l-12.1 31.3c-2.4 6.2-5.1 8.5-10 8.5-3 .1-5.1-.6-7.3-1.7zM85 81.6c.4 0 .7-.2 1-.5l3.7-4c.3-.3.2-.5-.2-.5h-6c-.4 0-.9.2-1.2.5l-3.7 4c-.3.3-.2.5.2.5H85z"/></svg>