<svg xmlns="http://www.w3.org/2000/svg" viewBox="0 0 238 24"><style>.st0{fill:#1d1d1d;}</style><g id="XMLID_2_"><path id="XMLID_3_" class="st0" d="M0 23.3V.7h5.6c5.3 0 9.5 1.7 9.5 7.7 0 5.9-3.6 7.7-8.9 7.5v7.4H0zM6.6 5.5h-.5v5.2c1.7.1 2.7-.8 2.7-2.5.1-1.4-.7-2.7-2.2-2.7z"/><path id="XMLID_6_" class="st0" d="M26.6 23.3v-9.2h-2.9v9.2h-6.1V.7h6.1v8.1h2.9V.7h6.1v22.7h-6.1z"/><path id="XMLID_8_" class="st0" d="M36.4 23.3V.7h6.1v22.7h-6.1z"/><path id="XMLID_10_" class="st0" d="M46.1 23.3V.7h6.1V18h4.6v5.3H46.1z"/><path id="XMLID_12_" class="st0" d="M59.3 23.3V.7h6.1V18H70v5.3H59.3z"/><path id="XMLID_14_" class="st0" d="M74.4 23.3v-9.6L68.8.7h6.4l2.1 7h.1l2.1-7h6.3l-5.3 13v9.6h-6.1z"/><path id="XMLID_16_" class="st0" d="M96.9.7h11.4V6H103v3.2h4.7v5.3H103V18h5.3v5.3H96.9V.7z"/><path id="XMLID_18_" class="st0" d="M115.9 23.3v-9.6l-5.6-13h6.4l2.1 7h.1l2.1-7h6.3l-5.3 13v9.6h-6.1z"/><path id="XMLID_20_" class="st0" d="M129.4.7h11.4V6h-5.3v3.2h4.7v5.3h-4.7V18h5.3v5.3h-11.4V.7z"/><path id="XMLID_22_" class="st0" d="M157.7 23.3l-1.7-9.2c-.3-1.8-.4-3.4-.6-5h-.1c-.2 1.6-.2 3.2-.5 5l-1.3 9.2h-6l-5-22.7h6l1.4 9.1c.2 1.7.4 3.3.6 5h.1c.2-1.7.2-3.3.5-5l1.6-9.1h5.3l1.6 9.1c.3 1.7.5 3.3.7 4.9h.1c.2-1.4.2-3.2.5-4.9l1.4-9.1h6l-4.6 22.7h-6z"/><path id="XMLID_24_" class="st0" d="M177.9.3c6.2 0 8.7 6.2 8.7 11.7 0 5.5-2.4 11.7-8.7 11.7-6.2 0-8.7-6.2-8.7-11.7.1-5.5 2.5-11.7 8.7-11.7zm0 17.7c2.3 0 2.4-4.6 2.4-6 0-1.4-.1-6-2.4-6s-2.4 4.6-2.4 6c0 1.4.1 6 2.4 6z"/><path id="XMLID_27_" class="st0" d="M199 23.3l-3.4-9.4-.1.1c0 1.1.1 2.2.1 3.3v6h-6.1V.7h5.9c5.3 0 9.2 1.6 9.2 7.5 0 2.5-1.1 4.7-3.5 5.7l4.6 9.4H199zm-2.9-12.1c1.6 0 2.5-1.4 2.5-2.9 0-2-1.2-2.8-2.9-2.7v5.6h.4z"/><path id="XMLID_30_" class="st0" d="M223.7.7l-4.9 10.9 5.5 11.7h-6.6l-3.8-10.4h-.1v10.4h-6.1V.7h6.1v9.6l3.4-9.6h6.5z"/><path id="XMLID_32_" class="st0" d="M226.2 15.7c.8 1.3 2.3 2.5 3.9 2.5.8 0 1.8-.5 1.8-1.5 0-.5-.2-.9-.5-1.3-.3-.3-.6-.6-1-.9-1.2-.9-2.3-1.8-3-2.9-.8-1.1-1.2-2.3-1.2-4 0-2.6 1.7-7.5 6.9-7.5 1.5 0 3.1.5 4.4 1.1v6.9c-.7-1.1-2.2-2.4-3.6-2.4-.7 0-1.6.5-1.6 1.4 0 .5.3.9.6 1.3s.8.7 1.1.9c1.3.9 2.3 1.7 3 2.8.7 1 1.1 2.2 1.1 3.9 0 4.2-2.9 7.6-7.2 7.6-1.6 0-3.2-.3-4.6-.9v-7z"/></g></svg>