<?xml version="1.0" encoding="UTF-8" standalone="no"?>
<svg
   xmlns:dc="http://purl.org/dc/elements/1.1/"
   xmlns:cc="http://creativecommons.org/ns#"
   xmlns:rdf="http://www.w3.org/1999/02/22-rdf-syntax-ns#"
   xmlns:svg="http://www.w3.org/2000/svg"
   xmlns="http://www.w3.org/2000/svg"
   xmlns:sodipodi="http://sodipodi.sourceforge.net/DTD/sodipodi-0.dtd"
   xmlns:inkscape="http://www.inkscape.org/namespaces/inkscape"
   viewBox="0 0 238 92"
   id="svg2"
   version="1.1"
   inkscape:version="0.48.0 r9654"
   width="100%"
   height="100%"
   sodipodi:docname="client4.svg">
  <metadata
     id="metadata21">
    <rdf:RDF>
      <cc:Work
         rdf:about="">
        <dc:format>image/svg+xml</dc:format>
        <dc:type
           rdf:resource="http://purl.org/dc/dcmitype/StillImage" />
      </cc:Work>
    </rdf:RDF>
  </metadata>
  <defs
     id="defs19" />
  <sodipodi:namedview
     pagecolor="#ffffff"
     bordercolor="#666666"
     borderopacity="1"
     objecttolerance="10"
     gridtolerance="10"
     guidetolerance="10"
     inkscape:pageopacity="0"
     inkscape:pageshadow="2"
     inkscape:window-width="1858"
     inkscape:window-height="1057"
     id="namedview17"
     showgrid="false"
     inkscape:zoom="5.7585993"
     inkscape:cx="127.78813"
     inkscape:cy="46"
     inkscape:window-x="54"
     inkscape:window-y="-8"
     inkscape:window-maximized="1"
     inkscape:current-layer="svg2" />
  <style
     id="style4">.Arched_x0020_Green{fill:url(#SVGID_1_);stroke:#1d1d1d;stroke-width:0.25;stroke-miterlimit:1;} .st0{fill:#1d1d1d;}</style>
  <linearGradient
     id="SVGID_1_"
     gradientUnits="userSpaceOnUse"
     x1="-273.6"
     y1="349.2"
     x2="-272.893"
     y2="348.493">
    <stop
       offset="0"
       stop-color="#1EAB4B"
       id="stop7" />
    <stop
       offset=".983"
       stop-color="#19361A"
       id="stop9" />
  </linearGradient>
  <path
     style="fill:none;stroke:#1a1a1a;stroke-width:7;stroke-linecap:butt;stroke-linejoin:round;stroke-miterlimit:4;stroke-opacity:1"
     d="m 46.191788,46.850132 c -0.02612,-2.185382 2.932964,-1.113401 3.632249,-0.04342 1.895018,2.899596 -0.741944,6.378494 -3.545419,7.307913 -5.014758,1.662513 -9.907604,-2.346386 -10.983578,-7.134252 -1.579035,-7.026386 3.957444,-13.499383 10.723087,-14.659243 9.017538,-1.54591 17.115346,5.568862 18.334906,14.311921 1.534692,11.002248 -7.179967,20.74331 -17.900754,22.010571 C 33.46797,70.178449 22.07415,59.852825 20.766044,47.154038 19.224485,32.188957 31.167493,19.136804 45.844466,17.792139 62.789613,16.23967 77.503669,29.804112 78.88203,46.459395 80.448212,65.384187 65.259615,81.762571 46.62594,83.172623 25.721772,84.754489 7.6773309,67.939822 6.2370472,47.327699 4.6380592,24.444335 23.080195,4.7325621 45.670805,3.2631423"
     id="path3000" />
  <g
     transform="matrix(1.272296,0,0,1.272296,-23.549517,4.5301759)"
     style="font-size:8px;font-style:normal;font-variant:normal;font-weight:normal;font-stretch:normal;text-align:start;line-height:125%;letter-spacing:0px;word-spacing:0px;writing-mode:lr-tb;text-anchor:start;fill:#000000;fill-opacity:1;stroke:none;font-family:Josefin Sans;-inkscape-font-specification:Josefin Sans"
     id="flowRoot3770">
    <path
       d="m 99.468828,25.072992 c -0.763003,-0.685475 -1.636991,-1.204468 -2.621967,-1.55698 -0.984997,-0.352478 -1.966983,-0.529476 -2.945961,-0.530993 -1.659985,-0.01348 -3.151965,0.403512 -4.475943,1.250984 -1.323985,0.847505 -2.023975,2.206486 -2.099972,4.076948 0.046,1.503491 0.499992,2.612475 1.361982,3.326957 0.861986,0.714498 1.855972,1.229491 2.981962,1.54498 1.123478,0.335002 1.990466,0.666997 2.600966,0.995987 0.610483,0.329001 0.919479,0.804995 0.926988,1.427982 -0.02001,0.675495 -0.256006,1.154488 -0.707991,1.436981 -0.452002,0.282499 -0.999994,0.419497 -1.643979,0.410995 -0.689997,-0.0105 -1.367987,-0.181495 -2.033973,-0.512994 -0.665996,-0.331492 -1.211988,-0.760486 -1.637979,-1.286983 l -2.687966,2.735965 c 0.764489,0.784491 1.707476,1.387482 2.828964,1.808976 1.121482,0.421494 2.298465,0.634491 3.530954,0.638992 1.74097,0.0085 3.244949,-0.446494 4.511942,-1.364982 1.266971,-0.918486 1.930962,-2.351467 1.991975,-4.298945 -0.07601,-1.646972 -0.668004,-2.828955 -1.775977,-3.545954 -1.107997,-0.716981 -2.27598,-1.238974 -3.503955,-1.56598 -0.812497,-0.232986 -1.449489,-0.486983 -1.910976,-0.76199 -0.4615,-0.274985 -0.696496,-0.68498 -0.704991,-1.229984 0.03299,-0.658979 0.296991,-1.110973 0.79199,-1.355983 0.494987,-0.244984 1.02298,-0.360982 1.58398,-0.347995 0.544485,0.0055 1.093477,0.138512 1.646979,0.398995 0.553483,0.26051 1.012477,0.615505 1.376982,1.064986 z"
       style="font-size:24px;font-family:AvenirNext LT Pro Bold;-inkscape-font-specification:AvenirNext LT Pro Bold"
       id="path3782" />
    <path
       d="m 115.15993,34.384872 c -0.0185,-1.72047 -0.5275,-3.18145 -1.52698,-4.382944 -0.9995,-1.201473 -2.37848,-1.828464 -4.13694,-1.880975 -0.8805,0.01501 -1.64549,0.19501 -2.29497,0.539993 -0.6495,0.345006 -1.15649,0.765001 -1.52098,1.259984 l -0.072,0 0,-1.463981 -3.74395,0 0,17.711772 3.93594,0 0,-7.079909 0.048,0 c 0.38499,0.520494 0.89899,0.925488 1.54198,1.214984 0.64299,0.289496 1.33698,0.436494 2.08198,0.440994 1.81196,-0.0565 3.20994,-0.69949 4.19394,-1.928975 0.98398,-1.229481 1.48197,-2.706461 1.49398,-4.430943 z m -3.81595,0 c -1e-5,0.811495 -0.234,1.522485 -0.70199,2.132973 -0.468,0.610495 -1.16999,0.931491 -2.10597,0.962987 -0.897,-0.0305 -1.59899,-0.347492 -2.10597,-0.950987 -0.507,-0.603488 -0.765,-1.310479 -0.77399,-2.120973 0.009,-0.789483 0.26699,-1.490474 0.77399,-2.102973 0.50698,-0.612484 1.20897,-0.935479 2.10597,-0.968987 0.93598,0.03101 1.63797,0.347004 2.10597,0.947987 0.46799,0.601 0.70198,1.30099 0.70199,2.099973 z"
       style="font-size:24px;font-family:AvenirNext LT Pro Bold;-inkscape-font-specification:AvenirNext LT Pro Bold"
       id="path3784" />
    <path
       d="m 121.88605,24.640998 c -0.016,-0.614976 -0.236,-1.124969 -0.65999,-1.529981 -0.424,-0.404977 -0.95599,-0.614974 -1.59598,-0.629991 -0.6505,0.01802 -1.18549,0.234015 -1.60498,0.647991 -0.4195,0.414011 -0.63649,0.918004 -0.65099,1.511981 0.0145,0.604507 0.23149,1.111499 0.65099,1.52098 0.41949,0.409508 0.95449,0.622506 1.60498,0.638992 0.63999,-0.01349 1.17198,-0.220483 1.59598,-0.620992 0.42399,-0.40048 0.64398,-0.913473 0.65999,-1.53898 z m -0.288,15.767797 0,-11.951846 -3.93595,0 0,11.951846 z"
       style="font-size:24px;font-family:AvenirNext LT Pro Bold;-inkscape-font-specification:AvenirNext LT Pro Bold"
       id="path3786" />
    <path
       d="m 132.659,28.216952 c -0.0995,-0.03549 -0.2245,-0.06049 -0.37499,-0.075 -0.15051,-0.01449 -0.30551,-0.02149 -0.465,-0.021 -0.73799,0.01101 -1.38599,0.205009 -1.94397,0.581992 -0.558,0.377007 -0.98999,0.871 -1.29598,1.481981 l -0.048,0 0,-1.727977 -3.79195,0 0,11.951846 3.93594,0 0,-6.143921 c -0.015,-0.543486 0.189,-1.118478 0.612,-1.724978 0.42298,-0.606484 1.15497,-0.935479 2.19597,-0.986987 0.15599,-9.91e-4 0.31799,0.007 0.48599,0.024 0.16799,0.01701 0.34199,0.04901 0.522,0.096 z"
       style="font-size:24px;font-family:AvenirNext LT Pro Bold;-inkscape-font-specification:AvenirNext LT Pro Bold"
       id="path3788" />
    <path
       d="m 141.31064,35.608857 c -0.004,0.752994 -0.21801,1.346986 -0.64199,1.781976 -0.424,0.434997 -1.034,0.656994 -1.82998,0.665992 -0.4175,0.006 -0.80049,-0.084 -1.14898,-0.269997 -0.3485,-0.185994 -0.5335,-0.50399 -0.555,-0.953987 0.045,-0.687487 0.44099,-1.136481 1.18799,-1.346983 0.74698,-0.210492 1.57497,-0.305491 2.48397,-0.284996 l 0.50399,0 z M 136.07871,32.2249 c 0.36749,-0.344987 0.80848,-0.632983 1.32298,-0.863989 0.51449,-0.230988 1.05748,-0.350986 1.62898,-0.359995 0.62548,-0.0015 1.13848,0.139508 1.53898,0.422995 0.40049,0.283505 0.60748,0.718499 0.62099,1.304983 l 0,0.191997 c -1.19036,-0.01421 -2.3696,0.07823 -3.53773,0.27733 -1.16814,0.199115 -2.14294,0.590221 -2.92441,1.173318 -0.78147,0.583109 -1.18739,1.443541 -1.21776,2.5813 0.0625,1.384484 0.54949,2.359471 1.46098,2.924962 0.91149,0.565493 1.87247,0.83849 2.88296,0.81899 0.72299,-0.0035 1.38898,-0.140498 1.99798,-0.410995 0.60898,-0.270497 1.07098,-0.653491 1.38598,-1.148985 l 0.072,0 0,1.271984 3.59995,0 0,-6.023923 c 0.0215,-2.163464 -0.3935,-3.758442 -1.24498,-4.784939 -0.8515,-1.026475 -2.26848,-1.535468 -4.25095,-1.526979 -0.98549,0.0015 -1.94248,0.17251 -2.87096,0.512993 -0.92849,0.340507 -1.74748,0.8415 -2.45697,1.502981 z"
       style="font-size:24px;font-family:AvenirNext LT Pro Bold;-inkscape-font-specification:AvenirNext LT Pro Bold"
       id="path3790" />
    <path
       d="m 151.88043,40.408795 0,-18.143767 -3.98395,0 0,18.143767 z"
       style="font-size:24px;font-family:AvenirNext LT Pro Bold;-inkscape-font-specification:AvenirNext LT Pro Bold"
       id="path3792" />
    <path
       d="m 161.18828,24.952994 5.68792,0 0,-1.53598 -13.10383,0 0,1.53598 5.68793,0 0,15.455801 1.72798,0 z"
       style="font-family:AvenirNext LT Pro Regular;-inkscape-font-specification:AvenirNext LT Pro Regular"
       id="path3794" />
    <path
       d="m 170.24384,33.928878 c 0.0905,-0.992979 0.49149,-1.844968 1.20298,-2.555967 0.71149,-0.710982 1.62247,-1.082976 2.73296,-1.115986 1.16748,0.02101 2.06647,0.369005 2.69697,1.043987 0.63048,0.674999 0.97148,1.550987 1.02299,2.627966 z m 9.31188,0.527993 c -0.004,-1.575972 -0.45851,-2.887954 -1.36499,-3.935949 -0.90649,-1.047975 -2.24348,-1.591968 -4.01095,-1.631979 -1.63248,0.03451 -2.97546,0.595504 -4.02894,1.682979 -1.05349,1.087494 -1.59848,2.494475 -1.63498,4.220945 0.0335,1.726482 0.58449,3.133462 1.65298,4.220946 1.06848,1.087486 2.45346,1.648478 4.15494,1.682978 0.92698,0.006 1.79697,-0.179998 2.60997,-0.557993 0.81298,-0.377994 1.55097,-0.983986 2.21397,-1.817976 l -1.22398,-0.959988 c -0.31801,0.521996 -0.786,0.971989 -1.40399,1.349982 -0.618,0.377997 -1.34999,0.575994 -2.19597,0.593993 -1.17599,-0.029 -2.14197,-0.426993 -2.89796,-1.193985 -0.75599,-0.766987 -1.15799,-1.728974 -1.20598,-2.885962 l 9.31188,0 c 0.02,-0.291991 0.028,-0.547987 0.024,-0.767991 z"
       style="font-family:AvenirNext LT Pro Regular;-inkscape-font-specification:AvenirNext LT Pro Regular"
       id="path3796" />
    <path
       d="m 192.4261,30.832918 c -0.4995,-0.647981 -1.12649,-1.133975 -1.88097,-1.457982 -0.7545,-0.323984 -1.51949,-0.485982 -2.29497,-0.485993 -1.83549,0.03451 -3.28847,0.595504 -4.35895,1.682979 -1.07049,1.087494 -1.61748,2.494475 -1.64098,4.220945 0.0235,1.726482 0.57049,3.133462 1.64098,4.220946 1.07048,1.087486 2.52346,1.648478 4.35895,1.682978 0.96847,-0.0075 1.80346,-0.184498 2.50496,-0.530994 0.70148,-0.346495 1.29047,-0.817488 1.76698,-1.412981 l -1.22398,-0.911988 c -0.32201,0.438996 -0.734,0.790992 -1.23599,1.055986 -0.502,0.264998 -1.10599,0.400996 -1.81197,0.407995 -1.32249,-0.029 -2.36148,-0.462993 -3.11696,-1.301984 -0.7555,-0.838986 -1.14049,-1.908971 -1.15499,-3.209958 0.0155,-1.312476 0.40449,-2.389462 1.16699,-3.230959 0.76248,-0.841479 1.80547,-1.276473 3.12896,-1.304983 0.62248,0.008 1.18947,0.148008 1.70097,0.419995 0.51149,0.272005 0.90448,0.628001 1.17899,1.067986 z"
       style="font-family:AvenirNext LT Pro Regular;-inkscape-font-specification:AvenirNext LT Pro Regular"
       id="path3798" />
    <path
       d="m 196.7462,31.024916 0,-8.759888 -1.63198,0 0,18.143767 1.63198,0 0,-5.759926 c 0.034,-1.495474 0.38599,-2.602459 1.05599,-3.320958 0.66998,-0.718481 1.45397,-1.075476 2.35197,-1.070986 1.15597,0.01701 1.95796,0.379005 2.40597,1.085987 0.44798,0.706999 0.66198,1.656986 0.64199,2.849963 l 0,6.21592 1.63198,0 0,-6.887912 c 4.8e-4,-1.410973 -0.35451,-2.530957 -1.06499,-3.359956 -0.7105,-0.828979 -1.77949,-1.252973 -3.20696,-1.271984 -0.81249,0.008 -1.56348,0.202009 -2.25297,0.581993 -0.6895,0.380005 -1.19449,0.897998 -1.51498,1.55398 z"
       style="font-family:AvenirNext LT Pro Regular;-inkscape-font-specification:AvenirNext LT Pro Regular"
       id="path3800" />
  </g>
</svg>
