<?xml version="1.0" encoding="UTF-8" standalone="no"?>
<!-- Created with Inkscape (http://www.inkscape.org/) -->

<svg
   xmlns:dc="http://purl.org/dc/elements/1.1/"
   xmlns:cc="http://creativecommons.org/ns#"
   xmlns:rdf="http://www.w3.org/1999/02/22-rdf-syntax-ns#"
   xmlns:svg="http://www.w3.org/2000/svg"
   xmlns="http://www.w3.org/2000/svg"
   xmlns:sodipodi="http://sodipodi.sourceforge.net/DTD/sodipodi-0.dtd"
   xmlns:inkscape="http://www.inkscape.org/namespaces/inkscape"
   width="286.56396"
   height="108.7186"
   id="svg3036"
   version="1.1"
   inkscape:version="0.48.0 r9654"
   sodipodi:docname="logo_2.svg">
  <defs
     id="defs3038" />
  <sodipodi:namedview
     id="base"
     pagecolor="#ffffff"
     bordercolor="#666666"
     borderopacity="1.0"
     inkscape:pageopacity="0.0"
     inkscape:pageshadow="2"
     inkscape:zoom="0.74648437"
     inkscape:cx="208.39691"
     inkscape:cy="146.24008"
     inkscape:document-units="px"
     inkscape:current-layer="layer1"
     showgrid="false"
     fit-margin-top="0"
     fit-margin-left="0"
     fit-margin-right="0"
     fit-margin-bottom="0"
     inkscape:window-width="1366"
     inkscape:window-height="715"
     inkscape:window-x="1912"
     inkscape:window-y="252"
     inkscape:window-maximized="1" />
  <metadata
     id="metadata3041">
    <rdf:RDF>
      <cc:Work
         rdf:about="">
        <dc:format>image/svg+xml</dc:format>
        <dc:type
           rdf:resource="http://purl.org/dc/dcmitype/StillImage" />
        <dc:title></dc:title>
      </cc:Work>
    </rdf:RDF>
  </metadata>
  <g
     inkscape:label="Calque 1"
     inkscape:groupmode="layer"
     id="layer1"
     transform="translate(-166.60309,-569.88366)">
    <g
       transform="translate(81.716379,80.376766)"
       style="font-size:144px;font-style:normal;font-variant:normal;font-weight:normal;font-stretch:normal;text-align:start;line-height:125%;letter-spacing:0px;word-spacing:0px;writing-mode:lr-tb;text-anchor:start;fill:#000000;fill-opacity:1;stroke:none;font-family:Illegal Curves;-inkscape-font-specification:Illegal Curves"
       id="flowRoot3044">
      <path
         d="m 84.886709,597.9375 17.423771,0 0,-47.08739 26.49566,0 0,-15.6958 -26.49566,0 0,-29.95162 39.1675,0 0,-15.69579 -56.591271,0 z"
         style="fill:#000000;font-family:Illegal Curves;-inkscape-font-specification:Illegal Curves"
         id="path3055" />
      <path
         d="m 149.03195,512.1146 17.13578,0 0,-21.88771 -17.13578,0 z m 17.13578,85.8229 0,-81.21495 -17.13578,0 0,81.21495 z"
         style="fill:#000000;font-family:Illegal Curves;-inkscape-font-specification:Illegal Curves"
         id="path3057" />
      <path
         d="m 173.34321,598.2255 17.85577,0 0,-92.73481 14.25581,0 c 3.91791,-0.0599 7.34986,0.0601 10.29587,0.35999 2.94591,0.30009 5.65788,1.14008 8.1359,2.51997 2.9099,2.26806 5.18987,5.00402 6.83991,8.2079 1.64991,3.20404 2.4899,6.65999 2.51997,10.36786 -0.009,3.69002 -0.67506,7.03798 -1.99798,10.04388 -1.32304,3.00602 -3.24901,5.56198 -5.77792,7.6679 -2.55902,2.13902 -5.79298,3.441 -9.70188,3.90594 -3.909,0.46505 -7.82694,0.65104 -11.75385,0.558 l -3.59995,0 29.23162,49.10337 18.57576,0 -25.77566,-40.60748 c 4.32288,-0.55195 8.27683,-1.64394 11.86184,-3.27596 3.58489,-1.63193 6.78284,-4.37989 9.59388,-8.24389 1.7519,-2.83191 3.14388,-5.98787 4.17595,-9.46788 1.0319,-3.47989 1.55989,-7.13984 1.58397,-10.97986 -0.0181,-6.21884 -1.24206,-11.92476 -3.67195,-17.11778 -2.43004,-5.19284 -5.958,-9.27878 -10.58386,-12.25784 -2.77503,-1.77587 -6.62098,-3.26385 -11.53786,-4.46394 -4.91698,-1.19988 -11.53489,-1.82387 -19.85374,-1.87198 l -30.6716,0 z"
         style="fill:#000000;font-family:Illegal Curves;-inkscape-font-specification:Illegal Curves"
         id="path3059" />
      <path
         d="m 299.63516,537.17028 c -8.24693,-2.8079 -14.32485,-5.29187 -18.23377,-7.4519 -3.90897,-2.15991 -5.84694,-5.72386 -5.81392,-10.69186 0.16498,-4.66786 1.74295,-8.36381 4.73394,-11.08786 2.99093,-2.72387 6.40489,-4.11585 10.24187,-4.17595 0.57295,-0.0389 1.94694,0.003 4.12195,0.126 2.17493,0.12309 6.89686,0.56109 14.16581,1.31398 l 13.67983,-14.9758 -31.96759,0 c -7.93493,0.0271 -15.10483,2.60107 -21.50973,7.7219 -6.40493,5.12103 -9.79488,12.62692 -10.16986,22.51771 0.17688,6.51732 1.83907,11.67458 4.9866,15.47179 3.1475,3.79735 6.71901,6.58664 10.71453,8.3679 3.99547,1.78136 7.35365,2.90668 10.07453,3.37596 6.80087,2.77501 12.2428,5.32497 16.32579,7.6499 4.0829,2.32501 6.17687,6.35095 6.28192,12.07784 -0.12905,4.66497 -1.77903,8.58291 -4.94994,11.75385 -3.171,3.17097 -7.08895,4.82095 -11.75384,4.94994 l -19.58375,0 -13.53583,13.53582 33.11958,0 c 11.4088,-0.29099 19.83868,-3.52495 25.28967,-9.70187 5.45086,-6.17691 8.15682,-13.5508 8.1179,-22.12172 -0.24007,-8.07886 -2.74804,-14.20477 -7.52391,-18.37776 -4.776,-4.17289 -10.37992,-7.59884 -16.81178,-10.27787 z"
         style="fill:#000000;font-family:Illegal Curves;-inkscape-font-specification:Illegal Curves"
         id="path3061" />
      <path
         d="m 330.84321,490.08289 0,15.6958 23.4717,0 0,92.01481 17.13577,0 0,-92.01481 0,-15.6958 -17.13577,0 z"
         style="fill:#000000;font-family:Illegal Curves;-inkscape-font-specification:Illegal Curves"
         id="path3063" />
    </g>
  </g>
</svg>
