<?xml version="1.0" encoding="UTF-8" standalone="no"?>
<svg
   xmlns:dc="http://purl.org/dc/elements/1.1/"
   xmlns:cc="http://creativecommons.org/ns#"
   xmlns:rdf="http://www.w3.org/1999/02/22-rdf-syntax-ns#"
   xmlns:svg="http://www.w3.org/2000/svg"
   xmlns="http://www.w3.org/2000/svg"
   xmlns:sodipodi="http://sodipodi.sourceforge.net/DTD/sodipodi-0.dtd"
   xmlns:inkscape="http://www.inkscape.org/namespaces/inkscape"
   viewBox="0 0 248.091 33.088342"
   id="svg2"
   version="1.1"
   inkscape:version="0.48.0 r9654"
   width="100%"
   height="100%"
   sodipodi:docname="client5.svg">
  <metadata
     id="metadata18">
    <rdf:RDF>
      <cc:Work
         rdf:about="">
        <dc:format>image/svg+xml</dc:format>
        <dc:type
           rdf:resource="http://purl.org/dc/dcmitype/StillImage" />
      </cc:Work>
    </rdf:RDF>
  </metadata>
  <defs
     id="defs16" />
  <sodipodi:namedview
     pagecolor="#ffffff"
     bordercolor="#666666"
     borderopacity="1"
     objecttolerance="10"
     gridtolerance="10"
     guidetolerance="10"
     inkscape:pageopacity="0"
     inkscape:pageshadow="2"
     inkscape:window-width="1858"
     inkscape:window-height="1057"
     id="namedview14"
     showgrid="false"
     inkscape:zoom="4.0719446"
     inkscape:cx="97.575653"
     inkscape:cy="17.409279"
     inkscape:window-x="54"
     inkscape:window-y="-8"
     inkscape:window-maximized="1"
     inkscape:current-layer="flowRoot2995"
     fit-margin-top="0"
     fit-margin-left="0"
     fit-margin-right="0"
     fit-margin-bottom="0" />
  <style
     id="style4">.st0{fill:#1d1d1d;}</style>
  <g
     transform="matrix(1.6571428,0,0,1.6571428,-1.9385668,59.677329)"
     style="font-size:28px;font-style:normal;font-variant:normal;font-weight:bold;font-stretch:normal;text-align:start;line-height:125%;letter-spacing:0px;word-spacing:0px;writing-mode:lr-tb;text-anchor:start;fill:#000000;fill-opacity:1;stroke:none;font-family:Cinzel;-inkscape-font-specification:Cinzel Bold"
     id="flowRoot2995">
    <path
       d="m 7.5237837,-33.988649 c 0.025828,-0.495861 0.2063431,-0.907373 0.5415473,-1.234539 0.3351882,-0.327127 0.7523709,-0.496793 1.2515495,-0.508998 l 0.3541945,0 0.00448,-0.279996 -8.5051704,0 0.00448,0.279996 0.3569958,0 c 0.4988757,0.01161 0.9158713,0.181485 1.2509883,0.509628 0.3351113,0.32818 0.5148805,0.740883 0.539308,1.238109 l 0,15.532521 c -0.021575,0.500022 -0.2003291,0.915361 -0.5362635,1.246018 -0.33594,0.330658 -0.7550706,0.502191 -1.2573932,0.514599 l -0.3541953,0 -0.00448,0.279996 8.5060108,0 -0.00448,-0.279996 -0.3539158,0 c -0.5026027,-0.01227 -0.9218969,-0.183724 -1.2578839,-0.514354 -0.3360031,-0.330627 -0.5147805,-0.745955 -0.5363328,-1.245983 z m 4.4135823,6.048203 5.44537,-6.465677 c 0.366889,-0.414231 0.813331,-0.741628 1.339328,-0.982193 0.52596,-0.240526 1.09721,-0.364016 1.713753,-0.370469 l 0.122638,0 0,-0.252558 -6.421997,0 0,0.247518 0.270476,0 c 0.395667,0.01638 0.662339,0.1602 0.80002,0.431473 0.137649,0.271312 0.09311,0.571934 -0.133628,0.901869 l -6.6493548,8.780127 c 0.051561,0.08373 0.4449173,0.633353 1.1800704,1.648857 0.7351334,1.015519 1.4998484,2.069048 2.2941444,3.160589 0.794273,1.09155 1.305913,1.793238 1.534921,2.105065 1.002233,1.138081 2.134887,1.822251 3.397966,2.052513 1.263046,0.230262 2.136564,0.319721 2.620557,0.268377 l 2.30437,0 0,-0.278316 c -0.5637,-0.01421 -1.0753,-0.165548 -1.5348,-0.454015 -0.459541,-0.288465 -0.899461,-0.715319 -1.319763,-1.280563 z"
       style="line-height:125%;font-family:Cinzel Bold;-inkscape-font-specification:'Cinzel Bold, Bold'"
       id="path3818" />
    <path
       d="m 22.102699,-24.578529 0.236037,0.942747 8.399891,0 0.236037,-0.942747 -0.236037,-0.929308 -8.399891,0 z"
       style="line-height:125%;font-family:Cinzel Bold;-inkscape-font-specification:'Cinzel Bold, Bold'"
       id="path3820" />
    <path
       d="m 47.099776,-21.558208 -0.270476,0 c -0.369704,1.249937 -0.95268,2.227205 -1.748929,2.931808 -0.796275,0.704606 -1.787624,1.068333 -2.97405,1.09118 l -3.370317,0 0,-6.640954 3.220519,0 c 0.654381,0.03235 1.166693,0.250954 1.536934,0.655821 0.370219,0.404882 0.558645,0.923785 0.565278,1.556711 l 0,0.197957 0.289798,0 0,-5.925844 -0.289798,0 0,0.179758 c -0.0068,0.63901 -0.198523,1.161529 -0.575147,1.56756 -0.376647,0.406049 -0.897428,0.621413 -1.562345,0.646092 l -3.184958,0 0,-6.787672 4.033627,0 c 0.814335,0.01984 1.440943,0.262639 1.879826,0.728409 0.438858,0.465801 0.660732,1.106199 0.665622,1.921196 l 0,0.260676 0.289796,0 0,-4.465942 c -0.249186,0.0945 -0.657887,0.187351 -1.226104,0.278561 -0.568242,0.09124 -1.128981,0.141467 -1.682219,0.150674 l -9.850833,0 0,0.279996 0.335436,0 c 0.424496,0.0085 0.779064,0.147224 1.063706,0.416215 0.284637,0.269022 0.435368,0.617478 0.452194,1.045366 l 0,13.314389 c -0.01989,0.425403 -0.171915,0.773403 -0.45608,1.044001 -0.284169,0.270599 -0.637442,0.410353 -1.05982,0.41926 l -0.335436,0 0,0.279996 13.100192,0 0.06748,0 z"
       style="fill:#808080"
       id="path3822" />
    <path
       d="m 48.544481,-33.210539 0,0.279157 0.335716,0 c 0.443453,0.0079 0.812745,0.145492 1.107875,0.41275 0.295125,0.26729 0.45764,0.6169 0.487544,1.048832 l 0,13.264549 c -0.01761,0.430402 -0.173286,0.787933 -0.467034,1.072595 -0.293754,0.284663 -0.660269,0.432338 -1.099546,0.443025 l -0.348036,0 0,0.279996 9.454079,0 c 3.029413,-0.02004 5.383398,-0.759116 7.061963,-2.217221 1.67853,-1.458101 2.530407,-3.514975 2.555632,-6.17063 -0.02523,-2.658381 -0.877096,-4.719852 -2.555597,-6.184421 -1.678535,-1.46454 -4.032439,-2.20723 -7.061718,-2.228071 z m 5.982403,1.102347 3.156959,0 c 1.775917,0.01846 3.161723,0.664557 4.157421,1.93831 0.995669,1.27378 1.501797,3.064577 1.518385,5.372396 -0.01768,2.295375 -0.525965,4.075462 -1.52486,5.340266 -0.998924,1.264809 -2.382478,1.906222 -4.150666,1.924241 l -3.15696,0 z"
       style="fill:#808080"
       id="path3824" />
    <path
       d="m 82.570945,-33.210818 0,0.279996 0.384155,0 c 0.356176,0.0052 0.653042,0.113398 0.890599,0.324551 0.237526,0.211185 0.366814,0.494156 0.387864,0.848914 l 0,9.42244 c -0.02145,1.633841 -0.438197,2.901266 -1.250253,3.80228 -0.812085,0.901017 -1.954726,1.357994 -3.427926,1.370932 -1.427304,-0.01364 -2.533755,-0.497914 -3.319358,-1.452831 -0.785619,-0.954914 -1.18396,-2.298638 -1.195024,-4.031178 l 0,-9.106043 c 0.01151,-0.356204 0.135266,-0.640413 0.371274,-0.852625 0.235995,-0.212181 0.532791,-0.3209 0.890389,-0.32616 l 0.402075,0 0,-0.279997 -7.363345,0 0,0.279997 0.383875,0 c 0.358353,0.0053 0.6581,0.113981 0.899244,0.326161 0.241139,0.212212 0.367639,0.49642 0.379499,0.852624 l 0,9.285521 c -0.002,2.01879 0.663122,3.589335 1.995325,4.711639 1.332193,1.122307 3.343382,1.692146 6.033572,1.709518 2.255982,-0.0178 3.99141,-0.592799 5.206288,-1.724988 1.214847,-1.132186 1.82896,-2.714747 1.842342,-4.747688 l 0,-9.256682 c 0.0177,-0.350114 0.146688,-0.629072 0.386954,-0.836874 0.240231,-0.20777 0.537493,-0.31418 0.891789,-0.31923 l 0.383875,0 0,-0.279997 z"
       style="fill:#808080"
       id="path3826" />
    <path
       d="m 96.985273,-16.689911 -0.289236,0 c -0.434125,-0.0094 -0.797106,-0.151705 -1.088942,-0.42682 -0.291851,-0.275114 -0.447984,-0.626473 -0.468399,-1.054081 l 0,-13.307389 c 0.02524,-0.422756 0.183414,-0.769788 0.474524,-1.041097 0.291095,-0.271276 0.651847,-0.411531 1.082257,-0.420764 l 0.301836,0 0.0039,-0.278036 -7.75646,0 0.0039,0.278036 0.307716,0 c 0.433613,0.0095 0.795986,0.15255 1.087121,0.429059 0.291129,0.276541 0.446096,0.629488 0.4649,1.058843 l 0,13.274628 c -0.0186,0.429371 -0.173135,0.782317 -0.463605,1.058842 -0.290475,0.276525 -0.653187,0.419545 -1.088136,0.429059 l -0.293436,0 0,0.279997 7.724821,0 z m 2.33433,-9.785594 4.659697,-5.484289 c 0.31656,-0.315966 0.69161,-0.561022 1.12513,-0.735166 0.4335,-0.174112 0.90087,-0.262999 1.40212,-0.266661 l 0.10612,0 0,-0.256756 -5.70549,0 0,0.253116 0.23436,0 c 0.3344,0.01322 0.56156,0.131924 0.68147,0.35612 0.11989,0.224229 0.0849,0.474744 -0.10496,0.751546 l -5.753364,7.603302 c 0.04002,0.06846 0.352083,0.511359 0.936193,1.328686 0.584093,0.817339 1.197267,1.673405 1.839525,2.568199 0.642236,0.894803 1.070592,1.492629 1.285066,1.793482 0.93644,1.068922 1.98509,1.707103 3.14597,1.914545 1.16085,0.207442 1.96101,0.286331 2.40048,0.236667 l 2.15541,0 0,-0.250877 c -0.51014,-0.01291 -0.96519,-0.154662 -1.36515,-0.425244 -0.4,-0.270581 -0.78121,-0.670625 -1.14361,-1.200135 z"
       style="line-height:125%;font-family:Cinzel Bold;-inkscape-font-specification:'Cinzel Bold, Bold'"
       id="path3828" />
    <path
       d="m 116.0619,-33.982489 -0.23772,0 c -0.0799,0.460279 -0.28422,1.070845 -0.61305,1.831701 -0.32885,0.760888 -0.56008,1.281786 -0.69369,1.562696 l -5.77549,12.438 c -0.27794,0.519733 -0.61259,0.894251 -1.00396,1.123555 -0.39137,0.229305 -0.77034,0.341607 -1.13689,0.336906 l -0.224,0 0,0.279996 5.59265,0 0,-0.277476 -0.22008,0 c -0.34373,-0.0017 -0.63367,-0.131663 -0.86981,-0.389931 -0.23614,-0.258267 -0.27044,-0.63471 -0.10289,-1.12933 l 1.1183,-2.596967 5.93032,0 1.08639,2.559447 c 0.1834,0.50672 0.1574,0.892426 -0.078,1.157121 -0.23541,0.264696 -0.52739,0.397915 -0.87597,0.39966 l -0.22007,0 0,0.277476 8.22881,0 0,-0.279996 -0.20944,0 c -0.39345,0.0052 -0.78823,-0.114769 -1.18435,-0.359761 -0.39614,-0.24499 -0.73458,-0.645956 -1.0153,-1.202899 z m -3.69288,12.077645 2.51185,-5.833445 2.47629,5.833445 z"
       style="line-height:125%;font-family:Cinzel Bold;-inkscape-font-specification:'Cinzel Bold, Bold'"
       id="path3830" />
    <path
       d="m 141.68099,-33.665812 c -0.21504,0.09555 -0.61972,0.189236 -1.21402,0.281046 -0.59434,0.09184 -1.17086,0.141147 -1.72958,0.147908 l -10.33438,0 c -0.55061,-0.0068 -1.11328,-0.05606 -1.68803,-0.147908 -0.57475,-0.09181 -0.99197,-0.185492 -1.25166,-0.281046 l 0,4.442142 0.28756,0 0,-0.260956 c 0.005,-0.806277 0.22699,-1.441367 0.66748,-1.905271 0.44048,-0.463875 1.07198,-0.70592 1.89449,-0.726135 l 3.23452,0 0,13.94046 c -0.0221,0.43154 -0.17705,0.784976 -0.4648,1.060311 -0.28776,0.275336 -0.64793,0.417586 -1.0805,0.42675 l -0.2968,0 0,0.279997 7.73714,0 0,-0.279997 -0.2968,0 c -0.42904,-0.0089 -0.78854,-0.148467 -1.07851,-0.418734 -0.28998,-0.270266 -0.4453,-0.617881 -0.46595,-1.042847 l 0,-13.96622 3.2334,0 c 0.82321,0.02022 1.45615,0.262261 1.89883,0.726135 0.44265,0.463904 0.66379,1.098994 0.66342,1.905271 l 0,0.260957 0.287,0 z"
       style="line-height:125%;font-family:Cinzel Bold;-inkscape-font-specification:'Cinzel Bold, Bold'"
       id="path3832" />
    <path
       d="m 150.87992,-16.409914 0,-0.279997 -0.33152,0 c -0.45538,-0.0091 -0.83494,-0.150515 -1.13868,-0.424299 -0.30375,-0.273784 -0.46813,-0.625424 -0.49314,-1.054922 l 0,-13.295069 c 0.0281,-0.426408 0.19368,-0.775307 0.49685,-1.046697 0.30316,-0.271359 0.6813,-0.41152 1.13441,-0.420484 l 0.3234,0 0,-0.279997 -7.93902,0 0,0.279997 0.33151,0 c 0.44976,0.0092 0.82738,0.151435 1.13287,0.426784 0.30548,0.27538 0.46611,0.628899 0.48187,1.060557 l 0,13.267349 c -0.0158,0.431394 -0.17638,0.784702 -0.48184,1.059926 -0.30546,0.275225 -0.683,0.417416 -1.13262,0.426575 l -0.33151,0 0,0.279996 z"
       style="line-height:125%;font-family:Cinzel Bold;-inkscape-font-specification:'Cinzel Bold, Bold'"
       id="path3834" />
  </g>
</svg>
