<svg version="1.1" xmlns="http://www.w3.org/2000/svg" x="0px" y="0px" viewBox="94 0 238 51">
<style type="text/css">
	.st0{fill:#1d1d1d;}
</style>
<g>
	<g>
		<g>
			<path class="st0" d="M115.9,30.4V20.2h5.4v10c0,2.8,1,4.2,3.5,4.2s3.5-1.4,3.5-4.2v-10h5.4v10.2c0,5.5-3.4,8.7-9.1,8.7
				C118.8,39.1,115.9,35.9,115.9,30.4z"/>
			<path class="st0" d="M137.8,29.4c0-5.6,4.2-9.7,9.7-9.7c3.7,0,6,1.3,7.7,3.2l-3.6,3.3c-0.9-1-2.3-1.8-4-1.8c-2.7,0-4.3,2.2-4.3,5
				s1.6,5,4.4,5c2,0,3.3-1,4.2-1.9l3.6,3.2c-1.8,2-4,3.4-7.9,3.4C142,39.1,137.8,35,137.8,29.4z"/>
			<path class="st0" d="M159.2,0.4h5.4v38.2h-5.4V0.4z"/>
			<path class="st0" d="M179.4,34.6c2.4,0,3.8-0.9,4.8-1.8l3.2,3.2c-1.7,1.8-4.1,3.1-7.9,3.1c-6.4,0-10.5-4.1-10.5-9.7
				s4.4-9.7,10-9.7c6.5,0,10.1,5.1,9.7,11.5h-14.1C175.1,33.3,176.7,34.6,179.4,34.6z M183,27.5c-0.4-1.9-1.7-3.2-4-3.2
				c-2.2,0-3.8,1.1-4.3,3.2H183z"/>
			<path class="st0" d="M192.6,30.4V20.2h5.4v10c0,2.8,1,4.2,3.5,4.2s3.5-1.4,3.5-4.2v-10h5.4v10.2c0,5.5-3.4,8.7-9.1,8.7
				C195.5,39.1,192.6,35.9,192.6,30.4z"/>
			<path class="st0" d="M213.6,35.4l3.4-3c1.3,1.6,3,2.3,4.8,2.3c1.9,0,2.7-0.6,2.7-1.3c0-0.9-0.5-1.2-3.6-1.9
				c-3.8-0.8-6.1-2.6-6.1-6s2.6-5.8,6.8-5.8c2.9,0,5,0.9,6.8,2.5l-2.9,3.3c-0.9-0.9-2.3-1.5-3.8-1.5c-1.4,0-2.1,0.6-2.1,1.3
				c0,0.9,0.7,1.2,3.8,1.8c4.1,0.8,6.1,2.9,6.1,5.9c0,3.7-2.6,6.1-7.7,6.1C218.8,39.1,215.8,37.9,213.6,35.4z"/>
			<path class="st0" d="M233,30.1c0-5.1,3.7-9,8.8-9c3.1,0,5.5,1.5,7,4.1V0.4h1.6v38.2h-1.6v-3.7c-1.5,2.7-3.9,4.1-7,4.1
				C236.7,39,233,35.1,233,30.1z M248.9,30.1c0-4.4-2.9-7.5-7.1-7.5c-4.2,0-7.1,3.2-7.1,7.5c0,4.4,2.9,7.5,7.1,7.5
				S248.9,34.4,248.9,30.1z"/>
			<path class="st0" d="M256.6,12.5c0-0.8,0.6-1.3,1.3-1.3c0.7,0,1.3,0.6,1.3,1.3c0,0.8-0.6,1.3-1.3,1.3
				C257.3,13.8,256.6,13.2,256.6,12.5z M257.2,21.5h1.6v17.1h-1.6V21.5z"/>
			<path class="st0" d="M265,45.5l1.5-0.5c1.1,2.6,3.8,4.1,7,4.1c4.1,0,6.6-2.7,6.6-7.2v-7c-1.5,2.7-3.9,4.1-7,4.1
				c-5.1,0-8.8-3.9-8.8-9s3.7-9,8.8-9c3.1,0,5.5,1.5,7,4.1v-3.7h1.6v20.5c0,5.2-3.2,8.6-8.2,8.6C269.3,50.6,266.3,48.5,265,45.5z
				 M280.1,30.1c0-4.4-2.9-7.5-7.1-7.5s-7.1,3.2-7.1,7.5c0,4.4,2.9,7.5,7.1,7.5S280.1,34.4,280.1,30.1z"/>
			<path class="st0" d="M287.8,12.5c0-0.8,0.6-1.3,1.3-1.3s1.3,0.6,1.3,1.3c0,0.8-0.6,1.3-1.3,1.3C288.4,13.8,287.8,13.2,287.8,12.5
				z M288.3,21.5h1.6v17.1h-1.6V21.5z"/>
			<path class="st0" d="M294.8,22.9v-1.4h2.4V11.2h1.6v10.3h4.5v1.4h-4.5v12c0,1.6,0.6,2.7,2.2,2.7c0.9,0,1.7-0.4,2.2-0.9l0.8,1.2
				c-0.8,0.7-1.9,1.1-3,1.1c-2.4,0-3.8-1.6-3.8-3.9V22.9L294.8,22.9L294.8,22.9z"/>
			<path class="st0" d="M306.7,30.1c0-5.1,3.6-9,8.6-9c3,0,5.3,1.5,6.8,4.1v-3.7h1.6v17.1h-1.6v-3.7c-1.5,2.7-3.8,4.1-6.8,4.1
				C310.3,39,306.7,35.1,306.7,30.1z M322.2,30.1c0-4.4-2.8-7.5-6.9-7.5c-4.1,0-6.9,3.2-6.9,7.5c0,4.4,2.9,7.5,6.9,7.5
				C319.4,37.6,322.2,34.4,322.2,30.1z"/>
			<path class="st0" d="M330.4,0.4h1.6v38.2h-1.6V0.4z"/>
		</g>
		<g>
			<path class="st0" d="M102.8,19.8h-0.3c-4.1,0-8.5,2.9-8.5,7.8v11.1h5.4V27.9c0-2,1.1-3.3,3.3-3.3c2.2,0,3.3,1.2,3.3,3.3v10.8h5.4
				V27.5C111.3,22.6,106.9,19.8,102.8,19.8z"/>
		</g>
	</g>
</g>
</svg>
